<svg width="25" height="25" viewBox="0 0 25 25" fill="none" xmlns="http://www.w3.org/2000/svg">
<path id="Subtract" d="M12.2962 0.673256C9.03689 0.673256 8.62785 0.687508 7.34771 0.745764C6.07007 0.80427 5.19798 1.00654 4.43489 1.30332C3.64556 1.60986 2.97599 2.0199 2.30891 2.68722C1.64134 3.3543 1.2313 4.02387 0.923763 4.81295C0.626231 5.57629 0.423709 6.44863 0.366203 7.72577C0.308947 9.00591 0.293945 9.4152 0.293945 12.6746C0.293945 15.9339 0.308447 16.3417 0.366453 17.6218C0.42521 18.8995 0.627482 19.7716 0.924014 20.5347C1.2308 21.324 1.64084 21.9936 2.30816 22.6606C2.97499 23.3282 3.64456 23.7393 4.43339 24.0458C5.19698 24.3426 6.06932 24.5448 7.34671 24.6033C8.62685 24.6616 9.03564 24.6759 12.2947 24.6759C15.5543 24.6759 15.9621 24.6616 17.2423 24.6033C18.5199 24.5448 19.393 24.3426 20.1566 24.0458C20.9457 23.7393 21.6143 23.3282 22.2811 22.6606C22.9486 21.9936 23.3587 21.324 23.6662 20.5349C23.9613 19.7716 24.1638 18.8992 24.2238 17.6221C24.2813 16.342 24.2963 15.9339 24.2963 12.6746C24.2963 9.4152 24.2813 9.00616 24.2238 7.72602C24.1638 6.44838 23.9613 5.57629 23.6662 4.8132C23.3587 4.02387 22.9486 3.3543 22.2811 2.68722C21.6135 2.01965 20.9459 1.60961 20.1558 1.30332C19.3908 1.00654 18.5182 0.80427 17.2405 0.745764C15.9604 0.687508 15.5528 0.673256 12.2925 0.673256H12.2962ZM11.2196 2.83599C11.5392 2.83549 11.8957 2.83599 12.2962 2.83599C15.5006 2.83599 15.8804 2.84749 17.1458 2.905C18.3159 2.9585 18.951 3.15402 19.374 3.31829C19.9341 3.53582 20.3334 3.79584 20.7532 4.21589C21.1732 4.63593 21.4332 5.03598 21.6513 5.59604C21.8155 6.01858 22.0113 6.65365 22.0646 7.82378C22.1221 9.08892 22.1346 9.46896 22.1346 12.6718C22.1346 15.8747 22.1221 16.2547 22.0646 17.5198C22.011 18.69 21.8155 19.325 21.6513 19.7476C21.4337 20.3076 21.1732 20.7064 20.7532 21.1262C20.3331 21.5463 19.9343 21.8063 19.374 22.0238C18.9515 22.1888 18.3159 22.3839 17.1458 22.4374C15.8806 22.4949 15.5006 22.5074 12.2962 22.5074C9.09165 22.5074 8.71186 22.4949 7.44672 22.4374C6.27659 22.3834 5.64152 22.1878 5.21823 22.0236C4.65817 21.806 4.25812 21.546 3.83808 21.126C3.41803 20.7059 3.15801 20.3069 2.93998 19.7466C2.77571 19.324 2.57994 18.689 2.52669 17.5188C2.46918 16.2537 2.45768 15.8737 2.45768 12.6688C2.45768 9.46396 2.46918 9.08592 2.52669 7.82078C2.58019 6.65065 2.77571 6.01558 2.93998 5.59254C3.15751 5.03248 3.41803 4.63243 3.83808 4.21239C4.25812 3.79234 4.65817 3.53232 5.21823 3.31429C5.64127 3.14927 6.27659 2.95425 7.44672 2.9005C8.55384 2.85049 8.98289 2.83549 11.2196 2.83299V2.83599ZM18.7024 4.82871C17.9074 4.82871 17.2623 5.47302 17.2623 6.26836C17.2623 7.06345 17.9074 7.70852 18.7024 7.70852C19.4975 7.70852 20.1426 7.06345 20.1426 6.26836C20.1426 5.47328 19.4975 4.82821 18.7024 4.82821V4.82871ZM12.2962 6.51139C8.89263 6.51139 6.13308 9.27094 6.13308 12.6746C6.13308 16.0782 8.89263 18.8365 12.2962 18.8365C15.6999 18.8365 18.4584 16.0782 18.4584 12.6746C18.4584 9.27094 15.6996 6.51139 12.296 6.51139H12.2962ZM12.2962 8.67412C14.5055 8.67412 16.2967 10.4651 16.2967 12.6746C16.2967 14.8838 14.5055 16.675 12.2962 16.675C10.0868 16.675 8.29581 14.8838 8.29581 12.6746C8.29581 10.4651 10.0868 8.67412 12.2962 8.67412Z" fill="white"/>
</svg>
