<svg width="1294" height="307" viewBox="0 0 1294 307" fill="none" xmlns="http://www.w3.org/2000/svg">
<path d="M511.218 199.739L511.227 199.739L510.883 199.328C479.84 162.315 451.748 118.626 427.4 69.4853C383.395 -19.3337 358.876 -110.419 345.275 -180.938L345.236 -181.141L345.03 -181.141L344.548 -181.141L344.246 -181.141L344.303 -180.844C357.909 -110.249 382.458 -19.042 426.527 69.9148C450.909 119.124 479.032 162.876 510.132 199.951C544.339 240.734 582.611 273.974 623.889 298.751L624.103 298.88L624.232 298.667L624.477 298.261L624.607 298.046L624.392 297.917C583.352 273.282 545.278 240.249 511.218 199.739Z" fill="#00FF85" stroke="#00FF85" stroke-width="0.5"/>
<path d="M359.265 -180.942L359.223 -181.141L359.02 -181.141L358.538 -181.141L358.232 -181.141L358.294 -180.841C372.853 -110.256 399.111 -17.3127 445.966 72.8704C471.056 121.165 499.765 163.983 531.29 200.134C565.96 239.889 604.525 272.11 645.898 295.868L646.114 295.992L646.239 295.777L646.475 295.372L646.601 295.155L646.383 295.029C605.1 271.32 566.625 239.174 532.025 199.494L531.951 199.408L531.941 199.408C500.503 163.337 471.861 120.621 446.826 72.4231C400.046 -17.6214 373.818 -110.422 359.265 -180.942Z" fill="#00FF85" stroke="#00FF85" stroke-width="0.5"/>
<path d="M372.999 -180.954L372.956 -181.15L372.755 -181.15L372.274 -181.15L371.963 -181.15L372.029 -180.847C387.523 -110.441 415.529 -15.8756 465.179 75.3641C490.968 122.744 520.224 164.628 552.146 199.855L552.331 199.687L552.146 199.855C587.26 238.591 626.08 269.783 667.539 292.542L667.758 292.663L667.878 292.443L668.105 292.028L668.225 291.809L668.006 291.689C626.648 268.978 587.918 237.86 552.866 199.198C521.002 164.042 491.777 122.22 466.034 74.8988C416.46 -16.1918 388.487 -110.614 372.999 -180.954Z" fill="#00FF85" stroke="#00FF85" stroke-width="0.5"/>
<path d="M286.787 -180.926L286.757 -181.141L286.54 -181.141L286.058 -181.141L285.771 -181.141L285.811 -180.856C295.545 -112.025 313.58 -28.9487 346.827 53.5463C368.102 106.34 393.684 153.779 422.876 194.571C454.977 239.428 491.887 276.818 532.57 305.7L532.774 305.845L532.919 305.641L533.193 305.254L533.337 305.05L533.133 304.906C492.538 276.088 455.713 238.776 423.67 193.997C394.532 153.279 368.987 105.904 347.735 53.1802C314.535 -29.201 296.518 -112.17 286.787 -180.926Z" fill="#00FF85" stroke="#00FF85" stroke-width="0.5"/>
<path d="M331.05 -180.945L331.013 -181.15L330.804 -181.15L330.322 -181.15L330.024 -181.15L330.076 -180.856C342.719 -110.422 365.578 -21.0732 406.89 66.5063C430.526 116.621 458.053 161.307 488.71 199.306C522.426 241.108 560.395 275.385 601.56 301.172L601.769 301.303L601.903 301.096L602.158 300.7L602.295 300.487L602.08 300.353C561.014 274.617 523.124 240.416 489.476 198.7C458.876 160.763 431.388 116.141 407.777 66.095C366.527 -21.3574 343.687 -110.586 331.05 -180.945Z" fill="#00FF85" stroke="#00FF85" stroke-width="0.5"/>
<path d="M556.446 303.856C515.796 276.16 478.696 240.021 446.158 196.438L446.167 196.438L445.87 196.039C416.223 156.245 389.998 109.785 367.944 57.9472C332.102 -26.2815 312.509 -111.456 301.825 -180.938L301.792 -181.15L301.578 -181.15L301.096 -181.15L300.805 -181.15L300.849 -180.862C311.547 -111.305 331.158 -26.0311 367.05 58.3222C389.136 110.229 415.389 156.753 445.091 196.621L445.291 196.471L445.091 196.621C477.759 240.46 515.038 276.812 555.9 304.656L556.107 304.797L556.247 304.591L556.512 304.204L556.653 303.997L556.446 303.856Z" fill="#00FF85" stroke="#00FF85" stroke-width="0.5"/>
<path d="M467.358 197.023L467.358 197.032C437.402 158.289 410.689 112.951 387.955 62.2521C349.423 -23.6733 328.235 -110.922 316.569 -180.942L316.535 -181.15L316.323 -181.15L315.842 -181.15L315.546 -181.15L315.595 -180.859C327.265 -110.774 348.481 -23.3966 387.064 62.6453C409.935 113.656 436.839 159.266 467.032 198.199C500.238 241.02 537.867 276.334 578.9 303.15L579.111 303.288L579.247 303.076L579.502 302.68L579.636 302.471L579.428 302.335C538.494 275.581 500.943 240.344 467.805 197.601L467.358 197.023Z" fill="#00FF85" stroke="#00FF85" stroke-width="0.5"/>
<path d="M594.123 80.1523L594.114 80.1617C529.062 -8.60011 489.117 -104.776 467.061 -169.854C465.983 -173.036 464.584 -176.756 462.98 -180.989L462.919 -181.15L462.746 -181.15L462.246 -181.15L461.883 -181.15L462.012 -180.812C463.645 -176.511 465.06 -172.753 466.144 -169.543L466.144 -169.542C488.238 -104.351 528.273 -7.96461 593.505 80.9655C656.981 167.511 729.554 226.962 809.225 257.676L809.459 257.766L809.548 257.533L809.718 257.089L809.808 256.856L809.575 256.767C730.107 226.132 657.673 166.799 594.295 80.3869L594.123 80.1523Z" fill="#00FF85" stroke="#00FF85" stroke-width="0.5"/>
<path d="M450.823 -180.974L450.764 -181.141L450.587 -181.141L450.087 -181.141L449.734 -181.141L449.851 -180.808C450.757 -178.234 451.568 -175.88 452.237 -173.771C473.264 -107.581 511.779 -9.57203 575.859 81.4141C638.211 169.949 710.273 231.334 790.048 263.851L790.278 263.945L790.373 263.715L790.553 263.281L790.649 263.049L790.416 262.954C710.835 230.51 638.919 169.254 576.655 80.8527C512.653 -10.02 474.176 -107.929 453.157 -174.064C452.495 -176.142 451.711 -178.455 450.823 -180.974Z" fill="#00FF85" stroke="#00FF85" stroke-width="0.5"/>
<path d="M386.516 -180.957L386.471 -181.15L386.273 -181.15L385.792 -181.15L385.476 -181.15L385.548 -180.843C401.958 -110.777 431.739 -14.7023 484.193 77.4336C510.643 123.899 540.438 164.84 572.738 199.132C608.268 236.85 647.333 267.014 688.839 288.782L689.061 288.898L689.177 288.677L689.394 288.262L689.51 288.041L689.289 287.924C647.874 266.203 608.9 236.113 573.441 198.469L573.26 198.64L573.441 198.469C541.191 164.237 511.448 123.348 485.034 76.9505C432.658 -15.0356 402.92 -110.966 386.516 -180.957Z" fill="#00FF85" stroke="#00FF85" stroke-width="0.5"/>
<path d="M378.056 187.727L378.056 187.735C350.198 145.33 326.216 96.3745 306.769 42.2038C278.693 -35.9922 263.678 -114.191 255.844 -180.93L255.818 -181.15L255.596 -181.15L255.124 -181.15L254.843 -181.15L254.875 -180.871C262.722 -114.068 277.753 -35.7737 305.864 42.5236C325.439 97.0617 349.614 146.321 377.71 188.952C408.611 235.838 444.69 275.322 484.957 306.298L485.157 306.452L485.309 306.25L485.592 305.873L485.741 305.675L485.545 305.524C445.374 274.623 409.369 235.219 378.514 188.422L378.056 187.727Z" fill="#00FF85" stroke="#00FF85" stroke-width="0.5"/>
<path d="M611.232 78.9655L611.232 78.9743C545.246 -7.64595 503.912 -102.01 480.851 -165.992C479.537 -169.637 477.779 -174.007 475.751 -179.05C475.495 -179.692 475.231 -180.344 474.966 -180.994L474.903 -181.15L474.735 -181.15L474.225 -181.15L473.857 -181.15L473.992 -180.808C474.145 -180.423 474.303 -180.033 474.458 -179.649C474.589 -179.326 474.719 -179.006 474.842 -178.696L474.843 -178.695C476.873 -173.649 478.617 -169.306 479.928 -165.672C503.07 -101.49 544.569 -6.74391 610.906 80.1396C675.449 164.685 748.494 222.231 828.024 251.143L828.26 251.229L828.345 250.994L828.505 250.55L828.59 250.316L828.356 250.23C749.021 221.386 676.124 163.967 611.681 79.5533L611.232 78.9655Z" fill="#00FF85" stroke="#00FF85" stroke-width="0.5"/>
<path d="M412.89 -180.964L412.841 -181.15L412.648 -181.15L412.157 -181.15L411.833 -181.15L411.916 -180.837C430.072 -111.921 463.46 -13.1956 521.543 80.2707C580.25 174.748 650.516 241.953 730.393 280.017L730.617 280.123L730.725 279.901L730.933 279.477L731.044 279.25L730.816 279.141C651.12 241.175 580.986 174.103 522.373 79.7617L522.3 79.6436L522.291 79.6436C464.354 -13.627 431.022 -112.143 412.89 -180.964Z" fill="#00FF85" stroke="#00FF85" stroke-width="0.5"/>
<path d="M399.798 -180.951L399.75 -181.141L399.555 -181.141L399.064 -181.141L398.744 -181.141L398.821 -180.831C416.119 -111.264 447.703 -13.8029 502.972 79.0784C530.073 124.61 560.369 164.626 593.037 197.985C628.964 234.684 668.247 263.839 709.791 284.616L710.017 284.729L710.127 284.503L710.335 284.078L710.444 283.856L710.222 283.745C630.564 243.893 561.109 174.87 503.808 78.5775C448.629 -14.1437 417.088 -111.46 399.798 -180.951Z" fill="#00FF85" stroke="#00FF85" stroke-width="0.5"/>
<path d="M540.234 79.8216L540.234 79.83C479.751 -13.6927 444.697 -113.072 425.775 -180.958L425.724 -181.141L425.534 -181.141L425.043 -181.141L424.714 -181.141L424.802 -180.824C443.78 -112.7 479 -12.8242 539.878 81.0667C599.85 173.563 670.759 238.825 750.637 275.021L750.864 275.124L750.967 274.897L751.166 274.464L751.27 274.235L751.041 274.132C671.356 238.022 600.58 172.892 540.694 80.5307L540.234 79.8216Z" fill="#00FF85" stroke="#00FF85" stroke-width="0.5"/>
<path d="M438.44 -180.976L438.385 -181.15L438.202 -181.15L437.711 -181.15L437.37 -181.15L437.473 -180.825C437.737 -179.986 437.991 -179.168 438.217 -178.388L438.217 -178.387C458.149 -111.197 495.106 -11.5847 557.986 81.4386C619.177 171.954 690.681 235.283 770.522 269.63L770.75 269.728L770.85 269.5L771.039 269.066L771.139 268.836L770.908 268.736C691.261 234.474 619.891 171.276 558.797 80.8946L558.723 80.7846L558.713 80.7846C495.955 -12.0931 459.056 -111.563 439.15 -178.661C438.932 -179.398 438.696 -180.173 438.44 -180.976Z" fill="#00FF85" stroke="#00FF85" stroke-width="0.5"/>
<path d="M271.457 -180.923L271.429 -181.141L271.209 -181.141L270.737 -181.141L270.453 -181.141L270.489 -180.859C279.27 -112.943 295.785 -32.1963 326.435 48.2801C346.879 101.951 371.762 150.305 400.416 192.021L400.622 191.879L400.416 192.021C431.931 237.888 468.435 276.325 508.919 306.244L509.119 306.391L509.268 306.193L509.551 305.816L509.702 305.614L509.5 305.465C469.102 275.61 432.673 237.252 401.215 191.464C372.605 149.823 347.749 101.533 327.337 47.9324C296.732 -32.4316 280.235 -113.082 271.457 -180.923Z" fill="#00FF85" stroke="#00FF85" stroke-width="0.5"/>
<path d="M42.4084 -180.891L42.4082 -181.141L42.1584 -181.141L41.6864 -181.141L41.4362 -181.141L41.4364 -180.891C41.4552 -143.325 43.3625 -104.267 47.9137 -64.5863C55.26 -0.495271 68.9142 59.0533 88.5192 112.399C110.079 171.074 139.148 223.037 174.907 266.833L175.066 267.027L175.26 266.868L175.628 266.566L175.821 266.408L175.663 266.215C139.98 222.504 110.966 170.647 89.4416 112.066L89.207 112.152L89.4416 112.066C69.8614 58.8002 56.2154 -0.671296 48.8825 -64.6904L48.8725 -64.7772L48.8631 -64.7866C44.3308 -104.398 42.4272 -143.388 42.4084 -180.891Z" fill="#00FF85" stroke="#00FF85" stroke-width="0.5"/>
<path d="M26.7359 -76.8026C23.3674 -112.226 22.0652 -147.123 22.2917 -180.889L22.2934 -181.141L22.0417 -181.141L21.5697 -181.141L21.3213 -181.141L21.3197 -180.893C21.0931 -147.09 22.3961 -112.163 25.7671 -76.6988C31.933 -11.9004 44.5579 48.4309 63.3034 102.625C83.919 162.234 112.233 215.216 147.453 260.087L147.608 260.284L147.805 260.128L148.173 259.836L148.368 259.681L148.214 259.486C113.06 214.7 84.8 161.816 64.2196 102.301C45.5075 48.1777 32.89 -12.0764 26.7368 -76.8027L26.7359 -76.8026Z" fill="#00FF85" stroke="#00FF85" stroke-width="0.5"/>
<path d="M139.404 129.982C118.184 78.4378 102.548 20.5944 92.931 -41.956L92.931 -41.9654L92.9281 -41.9843C85.6047 -89.6002 82.2354 -136.454 81.4992 -180.895L81.4951 -181.141L81.2493 -181.141L80.7773 -181.141L80.5231 -181.141L80.5273 -180.887C81.2638 -136.408 84.644 -89.5028 91.9619 -41.8329C101.584 20.7966 117.249 78.7232 138.498 130.352L138.729 130.257L138.498 130.352C161.881 187.131 192.367 237.038 229.118 278.674L229.282 278.86L229.469 278.697L229.828 278.386L230.018 278.221L229.852 278.032C193.179 236.48 162.739 186.669 139.404 129.982Z" fill="#00FF85" stroke="#00FF85" stroke-width="0.5"/>
<path d="M62.1378 -180.903L62.1357 -181.15L61.8878 -181.15L61.4158 -181.15L61.1637 -181.15L61.1658 -180.898C61.5057 -139.776 64.1117 -96.7294 69.9754 -52.9739C78.4737 10.3911 93.1478 69.1381 113.584 121.625C136.069 179.357 165.857 230.292 202.126 273.013L202.287 273.202L202.477 273.042L202.836 272.74L203.028 272.579L202.866 272.387C166.674 229.751 136.933 178.913 114.494 121.274C94.083 68.8568 79.4272 10.1961 70.943 -53.1064L70.9139 -53.3232L70.9045 -53.3232C65.0643 -96.9524 62.477 -139.885 62.1378 -180.903Z" fill="#00FF85" stroke="#00FF85" stroke-width="0.5"/>
<path d="M4.56347 -89.3582L4.56347 -89.3676L4.56277 -89.377C2.21284 -120.439 1.42004 -151.078 1.82587 -180.897L1.82931 -181.15L1.57589 -181.15L1.1039 -181.15L0.857353 -181.15L0.853919 -180.904C0.43846 -151.062 1.2316 -120.399 3.5922 -89.3015C8.54945 -23.8148 20.126 37.2899 37.9839 92.3327C57.6266 152.866 85.1563 206.857 119.819 252.813L119.969 253.012L120.169 252.862L120.546 252.579L120.747 252.429L120.596 252.229C85.9982 206.369 58.5117 152.476 38.9031 92.0369C21.0694 37.0864 9.51854 -23.9471 4.56347 -89.3582Z" fill="#00FF85" stroke="#00FF85" stroke-width="0.5"/>
<path d="M628.394 77.7712L628.394 77.7623L628.839 78.3235C694.312 160.748 767.642 216.254 846.797 243.326L847.033 243.407L846.953 243.643L846.802 244.087L846.721 244.323L846.484 244.242C767.123 217.104 693.644 161.482 628.08 78.9268C560.704 -5.91005 517.77 -99.0055 493.617 -162.159C492.293 -165.616 490.544 -169.737 488.522 -174.502L488.325 -174.965L628.394 77.7712ZM628.394 77.7712C561.346 -6.81314 518.598 -99.539 494.518 -162.498C493.157 -166.063 491.348 -170.325 489.261 -175.242L489.219 -175.34L488.989 -175.243L489.219 -175.341C488.445 -177.16 487.643 -179.055 486.822 -180.998L486.757 -181.15L486.591 -181.15L486.082 -181.15L485.706 -181.15L485.851 -180.804C486.691 -178.795 487.522 -176.842 488.325 -174.966L628.394 77.7712Z" fill="#00FF85" stroke="#00FF85" stroke-width="0.5"/>
<path d="M239.919 -180.927L239.895 -181.15L239.67 -181.15L239.198 -181.15L238.921 -181.15L238.95 -180.874C245.89 -115.382 259.486 -39.653 285.113 36.305C303.81 91.7013 327.239 141.866 354.749 185.421L354.961 185.288L354.749 185.421C385.017 233.326 420.652 273.847 460.664 305.87L460.86 306.027L461.016 305.831L461.308 305.463L461.464 305.268L461.269 305.112C421.343 273.165 385.782 232.715 355.568 184.9C328.101 141.42 304.698 91.3201 286.031 35.9943C260.428 -39.8639 246.847 -115.499 239.919 -180.927Z" fill="#00FF85" stroke="#00FF85" stroke-width="0.5"/>
<path d="M172.934 -180.907L172.919 -181.141L172.685 -181.141L172.213 -181.141L171.946 -181.141L171.963 -180.875C175.627 -122.664 184.03 -58.4799 200.526 6.48912C215.436 65.2143 235.654 118.925 260.623 166.112C288.086 218.015 321.68 262.725 360.482 298.993L360.666 299.165L360.837 298.98L361.158 298.631L361.326 298.448L361.144 298.279C322.425 262.09 288.892 217.464 261.481 165.652C236.551 118.533 216.356 64.8976 201.464 6.24349C184.996 -58.6423 176.596 -122.757 172.934 -180.907Z" fill="#00FF85" stroke="#00FF85" stroke-width="0.5"/>
<path d="M190.19 -180.909L190.173 -181.141L189.941 -181.141L189.469 -181.141L189.2 -181.141L189.219 -180.873C193.638 -120.53 203.25 -53.2804 221.899 14.6787C237.791 72.5929 258.849 125.427 284.49 171.708C312.689 222.621 346.832 266.284 385.973 301.486L386.16 301.654L386.327 301.467L386.639 301.118L386.805 300.932L386.619 300.765C347.561 265.642 313.49 222.062 285.333 171.239C259.733 125.026 238.699 72.2671 222.835 14.4238C204.215 -53.4502 194.607 -120.629 190.19 -180.909Z" fill="#00FF85" stroke="#00FF85" stroke-width="0.5"/>
<path d="M411.783 302.723C372.416 268.658 337.819 226.129 308.956 176.31L308.959 176.308C282.708 130.999 260.871 79.1178 244.035 22.1042C223.17 -48.5977 212.288 -118.718 207.078 -180.921L207.059 -181.15L206.829 -181.15L206.357 -181.15L206.085 -181.15L206.108 -180.879C211.329 -118.613 222.216 -48.4111 243.103 22.3777C259.949 79.4622 281.828 131.41 308.111 176.794L308.327 176.669L308.111 176.795C337.028 226.708 371.69 269.324 411.144 303.46L411.333 303.623L411.496 303.435L411.808 303.076L411.972 302.887L411.783 302.723Z" fill="#00FF85" stroke="#00FF85" stroke-width="0.5"/>
<path d="M436.682 304.182C397.036 271.193 361.959 229.726 332.413 180.928L332.413 180.918L332.377 180.859C305.503 136.464 282.874 85.4689 265.113 29.2944C241.917 -44.0658 229.714 -117.004 223.664 -180.924L223.642 -181.15L223.415 -181.15L222.943 -181.15L222.668 -181.15L222.694 -180.877C228.756 -116.893 240.964 -43.8717 264.193 29.5867C281.974 85.8317 304.637 136.893 331.553 181.363L331.767 181.233L331.553 181.363C361.16 230.267 396.322 271.845 436.06 304.925L436.251 305.084L436.411 304.894L436.713 304.535L436.875 304.343L436.682 304.182Z" fill="#00FF85" stroke="#00FF85" stroke-width="0.5"/>
<path d="M100.511 -180.897L100.505 -181.141L100.261 -181.141L99.7892 -181.141L99.5328 -181.141L99.5393 -180.885C100.738 -133.246 104.968 -82.6343 113.892 -31.1914C124.618 30.6836 141.238 87.7897 163.289 138.541C187.541 194.359 218.698 243.228 255.912 283.798L256.081 283.982L256.265 283.813L256.614 283.492L256.798 283.323L256.629 283.139C219.494 242.662 188.395 193.878 164.182 138.153C142.167 87.4805 125.568 30.451 114.856 -31.3617L114.82 -31.569L114.811 -31.569C105.927 -82.8845 101.699 -133.371 100.511 -180.897Z" fill="#00FF85" stroke="#00FF85" stroke-width="0.5"/>
<path d="M155.357 -180.904L155.345 -181.141L155.107 -181.141L154.635 -181.141L154.372 -181.141L154.386 -180.878C157.341 -125.005 164.602 -64.0188 179.04 -2.20024C192.939 57.3361 212.297 111.905 236.568 159.997C263.266 212.891 296.293 258.648 334.736 295.982L334.915 296.156L335.089 295.977L335.42 295.637L335.594 295.458L335.415 295.284C297.054 258.02 264.096 212.357 237.439 159.555C213.198 111.541 193.871 57.0473 179.989 -2.41764C165.569 -64.1644 158.321 -125.083 155.357 -180.904Z" fill="#00FF85" stroke="#00FF85" stroke-width="0.5"/>
<path d="M136.666 -21.1968L136.666 -21.2063L136.662 -21.2298C126.035 -76.2176 120.863 -130.368 119.146 -180.909L119.137 -181.151L118.896 -181.151L118.424 -181.151L118.165 -181.151L118.174 -180.892C119.892 -130.301 125.066 -76.1055 135.708 -21.05C147.521 40.0611 165.075 96.3279 187.891 146.202C212.984 201.058 244.792 248.89 282.432 288.375L282.603 288.555L282.784 288.384L283.124 288.063L283.307 287.891L283.133 287.709C245.565 248.306 213.814 200.56 188.771 145.806C165.995 96.016 148.463 39.8337 136.666 -21.1968Z" fill="#00FF85" stroke="#00FF85" stroke-width="0.5"/>
<path d="M137.431 -180.902L137.42 -181.141L137.181 -181.141L136.709 -181.141L136.448 -181.141L136.459 -180.88C138.772 -127.545 144.947 -69.8876 157.43 -11.3705C170.301 48.9579 188.762 104.385 212.324 153.364C238.229 207.239 270.661 254.033 308.716 292.442L308.89 292.618L309.068 292.446L309.408 292.116L309.589 291.94L309.411 291.76C271.437 253.432 239.064 206.722 213.199 152.94C189.685 104.03 171.236 48.6784 158.382 -11.5786C145.915 -70.0259 139.743 -127.627 137.431 -180.902Z" fill="#00FF85" stroke="#00FF85" stroke-width="0.5"/>
<path d="M603.258 -181.018L603.186 -181.141L603.043 -181.141L602.495 -181.141L602.059 -181.141L602.28 -180.764C607.202 -172.374 612.625 -164.343 617.25 -157.498C620.008 -153.413 622.384 -149.891 624.231 -146.925C656.938 -94.4469 711.734 -18.3743 787.025 46.024C860.297 108.688 935.963 145.82 1011.94 156.351L1012.18 156.385L1012.22 156.138L1012.29 155.667L1012.32 155.419L1012.07 155.384C936.309 144.878 860.804 107.847 787.662 45.2857C712.461 -19.0298 657.735 -95.0187 625.061 -147.444L624.988 -147.562L624.978 -147.562C623.127 -150.521 620.771 -154.013 618.052 -158.041L617.845 -157.902L618.052 -158.042C613.473 -164.813 608.125 -172.746 603.258 -181.018Z" fill="#00FF85" stroke="#00FF85" stroke-width="0.5"/>
<path d="M750.63 -181.071L750.558 -181.141L750.457 -181.141L749.777 -181.141L749.158 -181.141L749.604 -180.711C752.011 -178.391 754.123 -176.338 755.865 -174.532L755.866 -174.531C794.825 -134.238 857.847 -77.2263 936.805 -34.4561C1013.65 7.17361 1087.76 25.7008 1157.08 20.6234L1157.33 20.605L1157.31 20.3541L1157.28 19.8826L1157.26 19.6351L1157.01 19.6532C1087.89 24.722 1013.97 6.23807 937.27 -35.3106C858.42 -78.0289 795.485 -134.964 756.565 -175.209L756.385 -175.035L756.565 -175.209C754.891 -176.938 752.897 -178.892 750.63 -181.071Z" fill="#00FF85" stroke="#00FF85" stroke-width="0.5"/>
<path d="M1179.77 -7.16345C1112.13 0.411101 1038.87 -14.9427 962.022 -52.8309L962.023 -52.835C884.57 -91.0286 821.626 -143.203 781.762 -181.081L781.69 -181.15L781.59 -181.15L780.901 -181.15L780.275 -181.15L780.729 -180.719C820.623 -142.774 883.787 -90.3275 961.594 -51.9622C1038.59 -14.0019 1112.03 1.40225 1179.88 -6.19507L1180.13 -6.22312L1180.1 -6.47334L1180.04 -6.94482L1180.01 -7.19105L1179.77 -7.16345Z" fill="#00FF85" stroke="#00FF85" stroke-width="0.5"/>
<path d="M768.012 -179.182C767.407 -179.787 766.754 -180.42 766.074 -181.071L766.001 -181.141L765.901 -181.141L765.221 -181.141L764.596 -181.141L765.049 -180.71C765.86 -179.937 766.632 -179.194 767.328 -178.49L767.329 -178.488C806.704 -139.308 870.237 -84.0127 949.289 -43.1195L949.404 -43.3416L949.289 -43.1195C1026.23 -3.3292 1100.02 13.6317 1168.61 7.2708L1168.86 7.24755L1168.84 6.99698L1168.79 6.5255L1168.77 6.27855L1168.52 6.30146C1100.13 12.6421 1026.53 -4.27744 949.736 -43.988C870.792 -84.8115 807.338 -140.041 768.012 -179.182Z" fill="#00FF85" stroke="#00FF85" stroke-width="0.5"/>
<path d="M864.861 236.083C786.047 210.806 712.438 157.334 646.082 77.1355L646.091 77.1355L645.753 76.7262C577.449 -5.95381 533.187 -97.2916 508.072 -159.353C506.669 -162.825 504.819 -166.962 502.685 -171.732L502.575 -171.978C501.301 -174.826 499.951 -177.852 498.573 -180.991L498.507 -181.141L498.344 -181.141L497.825 -181.141L497.443 -181.141L497.596 -180.791C499.003 -177.574 500.382 -174.49 501.684 -171.585L501.944 -171.006C504.015 -166.375 505.808 -162.368 507.165 -158.996L507.165 -158.996C532.3 -96.87 576.613 -5.44379 644.999 77.3464C711.545 157.902 785.413 211.628 864.566 237.011L864.806 237.088L864.881 236.848L865.023 236.395L865.097 236.159L864.861 236.083Z" fill="#00FF85" stroke="#00FF85" stroke-width="0.5"/>
<path d="M745.042 -171.433L745.042 -171.434C742.848 -173.786 740.098 -176.542 736.908 -179.729L735.568 -181.068L735.494 -181.141L735.391 -181.141L734.721 -181.141L734.117 -181.141L734.544 -180.714C734.732 -180.526 734.92 -180.337 735.107 -180.149C735.481 -179.773 735.854 -179.399 736.226 -179.034C739.417 -175.846 742.16 -173.106 744.336 -170.763L744.336 -170.763C782.861 -129.366 845.326 -70.6284 924.152 -25.9527C1000.86 17.5257 1075.27 37.6663 1145.3 33.8724L1145.55 33.8588L1145.53 33.6078L1145.5 33.1363L1145.49 32.8882L1145.24 32.9017C1075.43 36.6797 1001.2 16.6031 924.625 -26.8026C845.907 -71.4157 783.519 -130.076 745.042 -171.433Z" fill="#00FF85" stroke="#00FF85" stroke-width="0.5"/>
<path d="M556.254 -181.014L556.184 -181.15L556.032 -181.15L555.503 -181.15L555.094 -181.15L555.28 -180.786C559.107 -173.303 563.168 -166.151 566.718 -159.909L567.097 -159.241C569.457 -155.082 571.502 -151.48 573.095 -148.432C602.714 -91.6057 653.289 -8.62964 725.972 63.8988C796.703 134.476 871.942 178.853 949.615 195.773L949.858 195.826L949.912 195.583L950.016 195.121L950.071 194.876L949.825 194.822C872.362 177.946 797.279 133.676 726.665 63.2148C654.078 -9.22693 603.56 -92.1077 573.963 -148.88C572.28 -152.11 570.097 -155.952 567.567 -160.392C564.056 -166.569 560.046 -173.627 556.254 -181.014Z" fill="#00FF85" stroke="#00FF85" stroke-width="0.5"/>
<path d="M567.845 -181.008L567.775 -181.141L567.624 -181.141L567.095 -181.141L566.681 -181.141L566.874 -180.774C571.059 -172.828 575.575 -165.232 579.483 -158.66C582.07 -154.312 584.295 -150.563 586.02 -147.409C616.452 -91.6584 668.141 -10.4081 741.552 60.0832C812.981 128.68 888.382 171.217 965.668 186.505L965.911 186.553L965.961 186.309L966.055 185.847L966.106 185.601L965.859 185.552C888.783 170.306 813.541 127.864 742.228 59.3831C668.915 -11.0224 617.283 -92.1872 586.884 -147.875L586.813 -148.005L586.794 -148.005C585.166 -150.982 583.096 -154.467 580.718 -158.472L580.309 -159.161L580.094 -159.033L580.309 -159.161C576.438 -165.668 571.986 -173.169 567.845 -181.008Z" fill="#00FF85" stroke="#00FF85" stroke-width="0.5"/>
<path d="M579.539 -181.011L579.468 -181.141L579.32 -181.141L578.782 -181.141L578.361 -181.141L578.562 -180.771C583.022 -172.575 587.891 -164.733 592.083 -157.983L592.163 -157.855L592.351 -157.552C594.915 -153.417 597.131 -149.844 598.851 -146.83L599.068 -146.954L598.851 -146.83C630.076 -92.1635 682.842 -12.6297 756.914 55.8244C829.005 122.44 904.529 163.157 981.399 176.84L981.644 176.884L981.689 176.639L981.774 176.177L981.819 175.93L981.572 175.886C904.902 162.242 829.537 121.619 757.574 55.1177C683.591 -13.2515 630.883 -92.6909 599.691 -147.304L599.474 -147.18L599.691 -147.304C597.914 -150.411 595.627 -154.102 592.984 -158.363L592.84 -158.596C588.71 -165.257 583.931 -172.964 579.539 -181.011Z" fill="#00FF85" stroke="#00FF85" stroke-width="0.5"/>
<path d="M933.499 203.706C855.68 185.191 780.798 139.077 710.932 66.6225L710.932 66.6223C639.109 -7.86525 589.752 -92.4525 560.994 -150.3C559.393 -153.526 557.322 -157.339 554.925 -161.752L554.769 -162.038L554.55 -161.919L554.769 -162.038C551.654 -167.762 548.144 -174.227 544.767 -181.012L544.698 -181.15L544.543 -181.15L544.015 -181.15L543.612 -181.15L543.791 -180.789C547.201 -173.91 550.762 -167.362 553.915 -161.573C556.379 -157.045 558.501 -153.146 560.122 -149.87L560.122 -149.87C588.901 -91.9685 638.304 -7.28531 710.223 67.29C780.207 139.867 855.248 186.083 933.27 204.654L933.511 204.712L933.57 204.471L933.684 204.009L933.744 203.764L933.499 203.706Z" fill="#00FF85" stroke="#00FF85" stroke-width="0.5"/>
<path d="M695.077 69.7717C764.135 144.179 838.771 192.13 916.889 212.307L917.129 212.369L917.069 212.61L916.956 213.062L916.895 213.307L916.651 213.244C838.308 193.002 763.495 144.927 694.304 70.3605C623.207 -6.27087 575.003 -92.6516 547.093 -151.618M695.077 69.7717L547.319 -151.725M695.077 69.7717L695.077 69.7623L695.011 69.6904C623.999 -6.84293 575.849 -93.1272 547.96 -152.04L547.734 -151.933L695.077 69.7717ZM547.093 -151.618L547.319 -151.725M547.093 -151.618C547.093 -151.618 547.093 -151.618 547.093 -151.618L547.319 -151.725M547.093 -151.618C545.509 -154.952 543.453 -158.936 541.055 -163.548L541.277 -163.663C543.675 -159.052 545.733 -155.063 547.319 -151.725M532.564 -180.882L532.789 -180.99C532.807 -180.954 532.824 -180.918 532.842 -180.882L532.564 -180.882ZM532.564 -180.882L532.564 -180.632L532.685 -180.632C532.645 -180.715 532.604 -180.798 532.564 -180.882ZM916.713 213.001L916.471 212.941L916.471 212.939C916.552 212.96 916.633 212.981 916.713 213.001ZM916.713 213.001L916.776 212.759C916.775 212.759 916.775 212.759 916.774 212.759L916.713 213.001ZM541.905 -163.995L541.683 -163.88L541.905 -163.995L541.905 -163.995Z" fill="#00FF85" stroke="#00FF85" stroke-width="0.5"/>
<path d="M520.61 -156.191C546.698 -95.1118 592.352 -5.35481 661.692 75.3793C729.164 153.936 803.391 205.765 882.299 229.422L882.54 229.494L882.611 229.253L882.743 228.8L882.812 228.562L882.575 228.491C803.888 204.912 729.834 153.21 662.481 74.822L662.481 74.8126L662.421 74.7424C593.164 -5.89192 547.562 -95.5515 521.494 -156.576C520.01 -160.051 518.063 -164.186 515.808 -168.975C514.042 -172.719 512.136 -176.762 510.221 -180.994L510.154 -181.141L509.993 -181.141L509.474 -181.141L509.086 -181.141L509.246 -180.788C511.201 -176.476 513.137 -172.364 514.931 -168.563C517.187 -163.772 519.13 -159.647 520.61 -156.191ZM520.61 -156.191L520.839 -156.289L520.61 -156.191C520.61 -156.191 520.61 -156.191 520.61 -156.191ZM882.371 229.183L882.131 229.113L882.131 229.111C882.211 229.135 882.291 229.159 882.371 229.183ZM882.371 229.183L882.443 228.943C882.442 228.943 882.441 228.943 882.441 228.943L882.371 229.183ZM509.474 -180.891L509.748 -180.891C509.733 -180.925 509.717 -180.96 509.701 -180.994L509.474 -180.891ZM509.474 -180.891L509.474 -180.641L509.587 -180.641C509.549 -180.724 509.512 -180.808 509.474 -180.891Z" fill="#00FF85" stroke="#00FF85" stroke-width="0.5"/>
<path d="M899.892 220.549C821.589 198.71 747.341 149.01 679.187 72.8073L679.206 72.8073L678.834 72.3908C608.671 -6.18826 561.776 -94.1696 534.784 -154.138C533.252 -157.547 531.239 -161.616 528.908 -166.32C526.671 -170.837 524.218 -175.795 521.783 -180.997L521.716 -181.141L521.557 -181.141L521.038 -181.141L520.645 -181.141L520.811 -180.785C523.152 -175.788 525.509 -171.01 527.666 -166.638L528.035 -165.891L528.035 -165.891L528.072 -165.817C530.379 -161.151 532.375 -157.116 533.894 -153.744C560.907 -93.7119 607.855 -5.64308 678.102 73.035C746.462 149.592 820.991 199.544 899.635 221.484L899.878 221.551L899.944 221.308L900.067 220.856L900.132 220.616L899.892 220.549Z" fill="#00FF85" stroke="#00FF85" stroke-width="0.5"/>
<path d="M605.565 -157.999L605.565 -158C601.156 -164.799 596.025 -172.742 591.338 -181.023L591.266 -181.15L591.12 -181.15L590.582 -181.15L590.154 -181.15L590.364 -180.777C595.063 -172.449 600.226 -164.466 604.65 -157.627L604.749 -157.473L604.959 -157.609L604.749 -157.473C607.45 -153.304 609.779 -149.706 611.588 -146.675C643.569 -93.1024 697.363 -15.2945 772.078 51.1317C844.783 115.767 920.392 154.682 996.829 166.78L997.075 166.819L997.115 166.573L997.19 166.111L997.231 165.863L996.983 165.824C920.756 153.763 845.308 114.94 772.722 50.4092C698.106 -15.933 644.371 -93.6469 612.424 -147.166C610.74 -149.996 608.601 -153.304 606.147 -157.1L605.565 -157.999Z" fill="#00FF85" stroke="#00FF85" stroke-width="0.5"/>
<path d="M885.65 -2.3537C807.576 -52.756 747.073 -116.58 710.057 -161.264L710.047 -161.283L710.029 -161.305C707.921 -163.846 705.255 -166.838 702.179 -170.289L701.992 -170.122L702.179 -170.289C699.233 -173.589 695.997 -177.218 692.724 -181.053L692.649 -181.141L692.533 -181.141L691.91 -181.141L691.369 -181.141L691.72 -180.729C695.092 -176.775 698.426 -173.03 701.456 -169.635L701.718 -169.342C704.686 -166.014 707.253 -163.135 709.285 -160.675L709.286 -160.675C746.337 -115.939 806.923 -52.0235 885.124 -1.54698C961.221 47.5721 1036.33 72.6187 1108.37 72.8735L1108.62 72.8744L1108.62 72.6235L1108.62 72.1521L1108.62 71.9029L1108.37 71.9021C1036.55 71.6476 961.612 46.6703 885.65 -2.3537Z" fill="#00FF85" stroke="#00FF85" stroke-width="0.5"/>
<path d="M911.846 -18.4485L911.836 -18.4579L911.809 -18.4739C833.261 -65.01 771.458 -125.387 733.444 -167.856C731.307 -170.242 728.62 -173.03 725.522 -176.245L725.394 -176.378L724.85 -176.943C723.572 -178.269 722.247 -179.645 720.893 -181.063L720.819 -181.141L720.712 -181.141L720.06 -181.141L719.477 -181.141L719.879 -180.718C721.541 -178.973 723.156 -177.294 724.695 -175.701C727.848 -172.428 730.564 -169.602 732.722 -167.202C770.784 -124.692 832.654 -64.2285 911.318 -17.6288C987.86 27.7173 1062.54 49.4712 1133.26 47.0081L1133.51 46.9993L1133.5 46.7482L1133.48 46.2767L1133.47 46.0282L1133.22 46.0369C1062.72 48.5051 988.232 26.8128 911.846 -18.4485Z" fill="#00FF85" stroke="#00FF85" stroke-width="0.5"/>
<path d="M685.94 -156.207L685.94 -156.194C684.064 -158.617 681.763 -161.409 679.15 -164.579L678.755 -165.057L678.562 -164.898L678.755 -165.057C674.799 -169.848 670.318 -175.285 665.932 -181.052L665.857 -181.15L665.733 -181.15L665.139 -181.15L664.635 -181.15L664.94 -180.749C669.408 -174.87 673.98 -169.312 678.001 -164.447C681.004 -160.815 683.587 -157.679 685.613 -155.025L685.614 -155.024C721.56 -108.073 780.691 -40.6768 858.269 13.7235C933.761 66.6627 1009.19 95.0775 1082.47 98.1446L1082.72 98.155L1082.73 97.9048L1082.75 97.4333L1082.76 97.184L1082.51 97.1735C1009.44 94.1113 934.188 65.7788 858.829 12.9275C781.356 -41.4046 722.298 -108.71 686.388 -155.621L685.94 -156.207Z" fill="#00FF85" stroke="#00FF85" stroke-width="0.5"/>
<path d="M698.296 -158.272L698.296 -158.281L698.242 -158.35C696.162 -160.957 693.534 -164.025 690.495 -167.569C686.993 -171.653 683.078 -176.223 679.172 -181.057L679.097 -181.15L678.978 -181.15L678.373 -181.15L677.851 -181.15L678.179 -180.744C682.175 -175.78 686.179 -171.1 689.757 -166.933L690.035 -166.609C692.958 -163.2 695.482 -160.255 697.483 -157.746C733.996 -111.907 793.873 -46.2465 871.781 6.19192C947.595 57.2164 1022.88 83.9329 1095.55 85.5844L1095.8 85.5902L1095.8 85.3345L1095.8 84.863L1095.8 84.6186L1095.56 84.6131C1023.11 82.9736 947.994 56.3187 872.325 5.39051C794.569 -46.9454 734.778 -112.487 698.296 -158.272Z" fill="#00FF85" stroke="#00FF85" stroke-width="0.5"/>
<path d="M898.805 -10.3337L898.803 -10.3313C820.477 -58.799 759.301 -120.906 721.77 -164.477C719.633 -166.961 716.939 -169.869 713.815 -173.234C711.55 -175.677 709.115 -178.306 706.614 -181.068L706.54 -181.15L706.429 -181.15L705.797 -181.15L705.234 -181.15L705.611 -180.733C708.208 -177.855 710.749 -175.11 713.099 -172.574L713.266 -172.393C716.311 -169.103 718.941 -166.261 721.033 -163.848C758.604 -120.225 819.85 -58.0363 898.297 -9.50305C974.63 37.7296 1049.54 61.1157 1120.93 59.9926L1121.18 59.9888L1121.18 59.7427L1121.18 59.2712L1121.18 59.0172L1120.92 59.0212C1049.74 60.1518 975.012 36.8144 898.805 -10.3337Z" fill="#00FF85" stroke="#00FF85" stroke-width="0.5"/>
<path d="M637.827 -147.741L637.837 -147.741L637.585 -148.127C635.685 -151.046 633.256 -154.501 630.444 -158.498C625.77 -165.137 620.309 -172.901 615.32 -181.022L615.247 -181.141L615.107 -181.141L614.55 -181.141L614.104 -181.141L614.337 -180.76C619.362 -172.554 624.873 -164.715 629.58 -158.02L629.638 -157.937L629.638 -157.937C632.452 -153.947 634.866 -150.5 636.76 -147.591C670.167 -96.2158 725.916 -21.8692 801.746 40.5107C875.547 101.213 951.232 136.562 1026.72 145.555L1026.96 145.584L1026.99 145.336L1027.05 144.865L1027.08 144.617L1026.83 144.587C951.559 135.617 876.036 100.357 802.366 39.7568C726.817 -22.3851 671.227 -96.4326 637.827 -147.741Z" fill="#00FF85" stroke="#00FF85" stroke-width="0.5"/>
<path d="M642.732 -159.379L642.53 -159.231L642.732 -159.379L642.61 -159.545C637.964 -165.892 632.553 -173.284 627.561 -181.026L627.487 -181.141L627.35 -181.141L626.794 -181.141L626.336 -181.141L626.583 -180.756C631.676 -172.828 637.212 -165.259 641.951 -158.8L642.282 -158.348C645.003 -154.635 647.357 -151.423 649.205 -148.69L649.205 -148.69C683.291 -98.4185 739.938 -25.8072 816.278 34.5637C890.56 93.3131 966.237 126.907 1041.2 134.381L1041.45 134.406L1041.48 134.157L1041.52 133.686L1041.55 133.437L1041.3 133.412C966.545 125.959 891.041 92.4526 816.88 33.8037C740.652 -26.4863 684.057 -99.0151 650.006 -149.235C648.207 -151.89 645.946 -154.983 643.345 -158.54L642.732 -159.379Z" fill="#00FF85" stroke="#00FF85" stroke-width="0.5"/>
<path d="M662.368 -150.824L662.368 -150.833L662.322 -150.898C660.346 -153.694 657.832 -156.998 654.925 -160.807C650.365 -166.785 645.073 -173.73 640.112 -181.031L640.038 -181.141L639.906 -181.141L639.339 -181.141L638.868 -181.141L639.132 -180.751C644.092 -173.422 649.391 -166.461 653.965 -160.454L654.15 -160.211L654.15 -160.211C657.059 -156.4 659.566 -153.113 661.526 -150.327L661.527 -150.327C696.255 -101.159 753.78 -30.2827 830.574 28.0886C905.3 84.895 980.93 116.744 1055.35 122.717L1055.6 122.737L1055.62 122.488L1055.65 122.017L1055.67 121.768L1055.43 121.748C981.21 115.783 905.754 84.0202 831.159 27.3133C754.502 -30.962 697.066 -101.71 662.368 -150.824Z" fill="#00FF85" stroke="#00FF85" stroke-width="0.5"/>
<path d="M674.287 -153.333L674.277 -153.323C672.291 -156.002 669.8 -159.153 666.93 -162.772L666.901 -162.809C662.602 -168.232 657.662 -174.466 652.937 -181.037L652.863 -181.141L652.735 -181.141L652.159 -181.141L651.672 -181.141L651.955 -180.745C656.764 -174.035 661.799 -167.675 666.179 -162.169C669.135 -158.443 671.681 -155.231 673.679 -152.52C709.03 -104.455 767.377 -35.3243 844.577 21.0568C919.71 75.9296 995.255 106.043 1069.12 110.553L1069.37 110.569L1069.38 110.319L1069.41 109.847L1069.42 109.598L1069.17 109.583C995.516 105.079 920.146 75.0407 845.155 20.2664C768.059 -36.0454 709.775 -105.086 674.459 -153.099L674.287 -153.333Z" fill="#00FF85" stroke="#00FF85" stroke-width="0.5"/>
</svg>
