<svg width="925" height="184" viewBox="0 0 925 184" fill="none" xmlns="http://www.w3.org/2000/svg">
<path d="M414.261 107.361L414.252 107.361L414.597 107.772C445.64 144.784 473.732 188.473 498.079 237.614C542.085 326.433 566.604 417.519 580.204 488.038L580.244 488.241L580.45 488.241L580.931 488.241L581.234 488.241L581.177 487.943C567.571 417.349 543.022 326.142 498.952 237.185C474.571 187.975 446.448 144.224 415.348 107.149C381.14 66.3654 342.869 33.1261 301.59 8.34827L301.377 8.22009L301.248 8.43316L301.002 8.83863L300.872 9.0533L301.087 9.18244C342.128 33.8173 380.202 66.8505 414.261 107.361Z" fill="#00FF85" stroke="#00FF85" stroke-width="0.5"/>
<path d="M566.215 488.041L566.256 488.241L566.46 488.241L566.941 488.241L567.248 488.241L567.186 487.94C552.627 417.355 526.368 324.412 479.513 234.229C454.423 185.934 425.715 143.117 394.19 106.966C359.519 67.2107 320.955 34.9902 279.581 11.2313L279.366 11.1075L279.241 11.3223L279.005 11.7278L278.878 11.9451L279.096 12.0703C320.379 35.7799 358.854 67.9257 393.454 107.605L393.529 107.691L393.538 107.691C424.977 143.762 453.619 186.479 478.654 234.677C525.434 324.721 551.662 417.522 566.215 488.041Z" fill="#00FF85" stroke="#00FF85" stroke-width="0.5"/>
<path d="M552.481 488.054L552.524 488.25L552.725 488.25L553.206 488.25L553.517 488.25L553.45 487.946C537.956 417.541 509.951 322.975 460.301 231.736C434.512 184.356 405.256 142.472 373.334 107.245L373.149 107.413L373.334 107.245C338.219 68.5088 299.4 37.3164 257.941 14.5576L257.721 14.437L257.601 14.6569L257.375 15.0718L257.255 15.2907L257.474 15.4108C298.832 38.1214 337.561 69.2397 372.614 107.901C404.478 143.057 433.702 184.88 459.446 232.201C509.019 323.292 536.993 417.714 552.481 488.054Z" fill="#00FF85" stroke="#00FF85" stroke-width="0.5"/>
<path d="M638.692 488.026L638.723 488.241L638.94 488.241L639.421 488.241L639.709 488.241L639.669 487.956C629.934 419.125 611.9 336.048 578.652 253.553C557.378 200.76 531.796 153.321 502.604 112.529C470.503 67.6713 433.592 30.2814 392.91 1.39978L392.705 1.2549L392.561 1.45915L392.287 1.84577L392.143 2.04956L392.346 2.19411C432.941 31.0121 469.766 68.3233 501.81 113.103C530.948 153.821 556.492 201.196 577.745 253.919C610.945 336.301 628.962 419.27 638.692 488.026Z" fill="#00FF85" stroke="#00FF85" stroke-width="0.5"/>
<path d="M594.43 488.044L594.467 488.25L594.676 488.25L595.157 488.25L595.456 488.25L595.403 487.956C582.761 417.522 559.901 328.173 518.589 240.593C494.954 190.478 467.426 145.793 436.77 107.793C403.054 65.9916 365.085 31.7146 323.92 5.92736L323.71 5.79626L323.577 6.00392L323.322 6.39996L323.185 6.61273L323.399 6.7471C364.466 32.4831 402.356 66.6837 436.003 108.4C466.603 146.336 494.092 190.959 517.703 241.005C558.953 328.457 581.792 417.685 594.43 488.044Z" fill="#00FF85" stroke="#00FF85" stroke-width="0.5"/>
<path d="M369.034 3.24354C409.684 30.9402 446.783 67.0783 479.322 110.661L479.313 110.661L479.61 111.061C509.257 150.855 535.481 197.315 557.536 249.153C593.378 333.381 612.971 418.556 623.655 488.038L623.688 488.25L623.902 488.25L624.383 488.25L624.675 488.25L624.631 487.962C613.933 418.405 594.322 333.131 558.43 248.778C536.343 196.871 510.091 150.346 480.389 110.479L480.188 110.628L480.389 110.479C447.721 66.6399 410.442 30.2876 369.579 2.44373L369.373 2.30317L369.232 2.50924L368.968 2.89586L368.827 3.10256L369.034 3.24354Z" fill="#00FF85" stroke="#00FF85" stroke-width="0.5"/>
<path d="M458.122 110.077L458.122 110.068C488.078 148.811 514.791 194.149 537.525 244.848C576.057 330.773 597.245 418.022 608.91 488.041L608.945 488.25L609.157 488.25L609.638 488.25L609.933 488.25L609.885 487.959C598.215 417.874 576.998 330.496 538.415 244.454C515.545 193.444 488.641 147.834 458.447 108.9C425.241 66.08 387.612 30.7654 346.58 3.94978L346.369 3.81206L346.233 4.02376L345.978 4.4198L345.843 4.62855L346.051 4.76437C386.986 31.5182 424.537 66.7557 457.675 109.499L458.122 110.077Z" fill="#00FF85" stroke="#00FF85" stroke-width="0.5"/>
<path d="M331.357 226.947L331.366 226.938C396.417 315.7 436.363 411.875 458.419 476.953C459.497 480.136 460.895 483.856 462.5 488.089L462.561 488.25L462.734 488.25L463.234 488.25L463.596 488.25L463.468 487.911C461.834 483.611 460.42 479.853 459.336 476.642L459.336 476.642C437.242 411.451 397.207 315.064 331.975 226.134C268.498 139.589 195.926 80.1378 116.255 49.4234L116.021 49.3333L115.931 49.5672L115.761 50.0104L115.672 50.2434L115.905 50.3331C195.372 80.9676 267.807 140.301 331.185 226.713L331.357 226.947Z" fill="#00FF85" stroke="#00FF85" stroke-width="0.5"/>
<path d="M474.657 488.074L474.715 488.241L474.892 488.241L475.393 488.241L475.746 488.241L475.628 487.908C474.722 485.334 473.912 482.98 473.243 480.871C452.215 414.681 413.7 316.672 349.621 225.686C287.268 137.15 215.206 75.7654 135.432 43.2488L135.201 43.155L135.106 43.3848L134.927 43.8186L134.831 44.0508L135.063 44.1456C214.645 76.5895 286.561 137.845 348.825 226.247C412.827 317.12 451.304 415.029 472.322 481.164C472.984 483.242 473.769 485.555 474.657 488.074Z" fill="#00FF85" stroke="#00FF85" stroke-width="0.5"/>
<path d="M538.963 488.057L539.009 488.25L539.207 488.25L539.688 488.25L540.003 488.25L539.932 487.943C523.522 417.877 493.741 321.802 441.286 229.666C414.836 183.201 385.042 142.26 352.742 107.968C317.212 70.25 278.146 40.0859 236.64 18.3177L236.419 18.2015L236.303 18.4232L236.085 18.8381L235.97 19.0594L236.191 19.1754C277.605 40.8964 316.58 70.9874 352.038 108.631L352.22 108.46L352.038 108.631C384.289 142.863 414.032 183.752 440.446 230.149C492.822 322.135 522.56 418.066 538.963 488.057Z" fill="#00FF85" stroke="#00FF85" stroke-width="0.5"/>
<path d="M547.424 119.373L547.424 119.365C575.281 161.77 599.264 210.725 618.711 264.896C646.787 343.092 661.802 421.291 669.636 488.029L669.662 488.25L669.884 488.25L670.356 488.25L670.637 488.25L670.604 487.971C662.758 421.168 647.726 342.873 619.616 264.576C600.041 210.038 575.866 160.779 547.77 118.148C516.869 71.2619 480.79 31.7779 440.523 0.80197L440.322 0.647742L440.171 0.85002L439.887 1.2272L439.739 1.4248L439.935 1.57546C480.106 32.4764 516.11 71.8803 546.965 118.677L547.424 119.373Z" fill="#00FF85" stroke="#00FF85" stroke-width="0.5"/>
<path d="M314.248 228.134L314.248 228.126C380.234 314.746 421.567 409.11 444.629 473.092C445.943 476.737 447.7 481.107 449.729 486.15C449.984 486.792 450.249 487.444 450.513 488.094L450.577 488.25L450.745 488.25L451.255 488.25L451.622 488.25L451.487 487.908C451.335 487.522 451.177 487.133 451.021 486.749C450.89 486.426 450.761 486.106 450.637 485.795L450.637 485.795C448.607 480.748 446.862 476.406 445.552 472.771C422.41 408.59 380.911 313.844 314.574 226.96C250.03 142.415 176.985 84.8688 97.4552 55.9565L97.2199 55.8709L97.1347 56.1063L96.9742 56.5495L96.8892 56.7842L97.1238 56.8695C176.459 85.7134 249.355 143.133 313.799 227.547L314.248 228.134Z" fill="#00FF85" stroke="#00FF85" stroke-width="0.5"/>
<path d="M512.59 488.064L512.639 488.25L512.832 488.25L513.322 488.25L513.647 488.25L513.564 487.936C495.407 419.021 462.02 320.295 403.937 226.829C345.23 132.352 274.964 65.1472 195.086 27.083L194.863 26.9765L194.754 27.1988L194.547 27.6231L194.436 27.85L194.664 27.9587C274.359 65.9252 344.494 132.997 403.106 227.338L403.18 227.456L403.189 227.456C461.125 320.727 494.458 419.243 512.59 488.064Z" fill="#00FF85" stroke="#00FF85" stroke-width="0.5"/>
<path d="M525.682 488.051L525.729 488.241L525.925 488.241L526.416 488.241L526.735 488.241L526.658 487.93C509.361 418.364 477.777 320.903 422.508 228.021C395.406 182.49 365.111 142.473 332.443 109.114C296.516 72.4157 257.233 43.261 215.689 22.4834L215.463 22.3706L215.352 22.5971L215.145 23.0214L215.036 23.244L215.257 23.3549C294.916 63.2063 364.371 132.23 421.672 228.522C476.851 321.243 508.392 418.56 525.682 488.051Z" fill="#00FF85" stroke="#00FF85" stroke-width="0.5"/>
<path d="M385.246 227.278L385.246 227.27C445.729 320.792 480.783 420.171 499.705 488.058L499.756 488.241L499.946 488.241L500.437 488.241L500.766 488.241L500.678 487.924C481.7 419.8 446.48 319.924 385.602 226.033C325.629 133.537 254.721 68.2747 174.843 32.0786L174.616 31.9757L174.512 32.2024L174.314 32.6361L174.21 32.8642L174.438 32.9677C254.124 69.0776 324.899 134.208 384.786 226.569L385.246 227.278Z" fill="#00FF85" stroke="#00FF85" stroke-width="0.5"/>
<path d="M487.039 488.076L487.095 488.25L487.278 488.25L487.768 488.25L488.109 488.25L488.007 487.925C487.743 487.086 487.489 486.268 487.263 485.488L487.262 485.487C467.331 418.297 430.374 318.685 367.493 225.661C306.303 135.146 234.798 71.8173 154.958 37.4704L154.729 37.372L154.63 37.6002L154.441 38.034L154.341 38.2642L154.571 38.3634C234.219 72.6262 305.588 135.824 366.683 226.205L366.757 226.315L366.767 226.315C429.525 319.193 466.424 418.663 486.33 485.761C486.547 486.498 486.784 487.273 487.039 488.076Z" fill="#00FF85" stroke="#00FF85" stroke-width="0.5"/>
<path d="M654.022 488.023L654.051 488.241L654.27 488.241L654.742 488.241L655.027 488.241L654.99 487.959C646.209 420.043 629.695 339.296 599.044 258.82C578.601 205.149 553.718 156.795 525.064 115.079L524.858 115.221L525.064 115.079C493.549 69.212 457.045 30.775 416.56 0.855649L416.361 0.708182L416.212 0.9066L415.929 1.28378L415.778 1.48523L415.98 1.63494C456.377 31.4897 492.806 69.8472 524.265 115.636C552.874 157.277 577.73 205.567 598.143 259.167C628.748 339.531 645.245 420.181 654.022 488.023Z" fill="#00FF85" stroke="#00FF85" stroke-width="0.5"/>
<path d="M883.071 487.991L883.071 488.241L883.321 488.241L883.793 488.241L884.043 488.241L884.043 487.991C884.024 450.424 882.117 411.367 877.566 371.686C870.22 307.595 856.565 248.047 836.96 194.701C815.4 136.026 786.331 84.0629 750.572 40.2672L750.414 40.0732L750.22 40.2319L749.852 40.5337L749.659 40.6918L749.817 40.8851C785.499 84.5959 814.514 136.453 836.038 195.034L836.273 194.948L836.038 195.034C855.618 248.3 869.264 307.771 876.597 371.79L876.607 371.877L876.617 371.886C881.149 411.497 883.052 450.487 883.071 487.991Z" fill="#00FF85" stroke="#00FF85" stroke-width="0.5"/>
<path d="M898.744 383.902C902.112 419.326 903.414 454.223 903.188 487.989L903.186 488.241L903.438 488.241L903.91 488.241L904.158 488.241L904.16 487.992C904.387 454.189 903.084 419.263 899.713 383.799C893.547 319 880.922 258.669 862.176 204.475C841.561 144.866 813.247 91.8842 778.027 47.0131L777.871 46.8153L777.675 46.9716L777.306 47.2639L777.112 47.4185L777.265 47.6141C812.42 92.3994 840.68 145.284 861.26 204.799C879.972 258.922 892.59 319.176 898.743 383.902L898.744 383.902Z" fill="#00FF85" stroke="#00FF85" stroke-width="0.5"/>
<path d="M786.076 177.117C807.296 228.662 822.932 286.505 832.549 349.056L832.549 349.065L832.552 349.084C839.875 396.7 843.244 443.553 843.98 487.995L843.985 488.241L844.23 488.241L844.702 488.241L844.957 488.241L844.952 487.987C844.216 443.507 840.836 396.602 833.518 348.933C823.896 286.303 808.23 228.376 786.982 176.748L786.751 176.843L786.982 176.748C763.599 119.968 733.113 70.0613 696.362 28.4257L696.198 28.2399L696.01 28.4023L695.652 28.7135L695.461 28.8787L695.628 29.0677C732.301 70.6198 762.74 120.431 786.076 177.117Z" fill="#00FF85" stroke="#00FF85" stroke-width="0.5"/>
<path d="M863.342 488.002L863.344 488.25L863.592 488.25L864.064 488.25L864.316 488.25L864.314 487.998C863.974 446.876 861.368 403.829 855.504 360.074C847.006 296.709 832.332 237.962 811.896 185.475C789.41 127.742 759.623 76.8075 723.354 34.0871L723.193 33.8974L723.002 34.0576L722.644 34.3593L722.451 34.521L722.614 34.7124C758.806 77.3486 788.547 128.187 810.986 185.826C831.397 238.243 846.052 296.904 854.537 360.206L854.566 360.423L854.575 360.423C860.415 404.052 863.003 446.985 863.342 488.002Z" fill="#00FF85" stroke="#00FF85" stroke-width="0.5"/>
<path d="M920.916 396.458L920.916 396.467L920.917 396.477C923.267 427.539 924.06 458.178 923.654 487.997L923.65 488.25L923.904 488.25L924.376 488.25L924.622 488.25L924.626 488.004C925.041 458.162 924.248 427.499 921.887 396.401C916.93 330.914 905.354 269.81 887.496 214.767C867.853 154.234 840.323 100.243 805.66 54.2871L805.51 54.0881L805.311 54.2375L804.933 54.5204L804.732 54.6708L804.884 54.8711C839.481 100.731 866.968 154.624 886.577 215.063C904.41 270.013 915.961 331.047 920.916 396.458Z" fill="#00FF85" stroke="#00FF85" stroke-width="0.5"/>
<path d="M297.086 229.329L297.086 229.337L296.64 228.776C231.168 146.352 157.838 90.8458 78.6827 63.7736L78.4464 63.6928L78.5269 63.4564L78.678 63.0132L78.7587 62.7763L78.9955 62.8573C158.356 89.9958 231.836 145.617 297.4 228.173C364.775 313.01 407.71 406.105 431.862 469.259C433.186 472.716 434.936 476.837 436.958 481.601L437.155 482.065L297.086 229.329ZM297.086 229.329C364.134 313.913 406.882 406.639 430.961 469.598C432.323 473.163 434.132 477.425 436.219 482.342L436.26 482.44L436.491 482.342L436.261 482.44C437.034 484.26 437.837 486.155 438.658 488.097L438.723 488.25L438.888 488.25L439.398 488.25L439.774 488.25L439.629 487.904C438.788 485.894 437.957 483.942 437.155 482.066L297.086 229.329Z" fill="#00FF85" stroke="#00FF85" stroke-width="0.5"/>
<path d="M685.561 488.026L685.584 488.25L685.809 488.25L686.281 488.25L686.559 488.25L686.53 487.974C679.59 422.482 665.993 346.753 640.366 270.795C621.67 215.399 598.241 165.234 570.73 121.678L570.519 121.812L570.73 121.678C540.462 73.774 504.827 33.2524 464.816 1.22932L464.62 1.07266L464.464 1.26883L464.171 1.63659L464.016 1.83168L464.211 1.98746C504.137 33.9346 539.698 74.3848 569.911 122.2C597.379 165.68 620.782 215.78 639.449 271.105C665.052 346.964 678.633 422.598 685.561 488.026Z" fill="#00FF85" stroke="#00FF85" stroke-width="0.5"/>
<path d="M752.546 488.007L752.56 488.241L752.795 488.241L753.267 488.241L753.533 488.241L753.517 487.975C749.853 429.764 741.45 365.58 724.954 300.611C710.044 241.885 689.826 188.174 664.856 140.988C637.393 89.0844 603.799 44.3748 564.997 8.10661L564.813 7.93452L564.643 8.12L564.322 8.46889L564.154 8.65143L564.335 8.82078C603.054 45.0095 636.588 89.6356 663.999 141.448C688.929 188.567 709.124 242.202 724.016 300.856C740.484 365.742 748.884 429.857 752.546 488.007Z" fill="#00FF85" stroke="#00FF85" stroke-width="0.5"/>
<path d="M735.29 488.009L735.307 488.241L735.539 488.241L736.011 488.241L736.28 488.241L736.26 487.973C731.841 427.63 722.229 360.38 703.58 292.421C687.688 234.507 666.63 181.673 640.99 135.392C612.79 84.4788 578.648 40.8161 539.506 5.61392L539.32 5.44613L539.152 5.63331L538.841 5.98221L538.675 6.16803L538.86 6.33459C577.919 41.4582 611.99 85.038 640.147 135.861C665.746 182.074 686.781 234.833 702.645 292.676C721.265 360.55 730.873 427.729 735.29 488.009Z" fill="#00FF85" stroke="#00FF85" stroke-width="0.5"/>
<path d="M513.697 4.37641C553.064 38.4417 587.66 80.9712 616.523 130.79L616.521 130.792C642.771 176.1 664.608 227.982 681.444 284.996C702.31 355.698 713.192 425.817 718.402 488.021L718.421 488.25L718.651 488.25L719.123 488.25L719.395 488.25L719.372 487.979C714.151 425.713 703.264 355.511 682.377 284.722C665.531 227.638 643.651 175.69 617.369 130.305L617.152 130.431L617.369 130.305C588.451 80.3919 553.789 37.7762 514.336 3.63998L514.147 3.4768L513.983 3.66501L513.672 4.02334L513.507 4.21244L513.697 4.37641Z" fill="#00FF85" stroke="#00FF85" stroke-width="0.5"/>
<path d="M488.798 2.91793C528.444 35.9073 563.521 77.374 593.067 126.172L593.067 126.182L593.103 126.241C619.976 170.635 642.605 221.631 660.366 277.805C683.563 351.166 695.766 424.104 701.816 488.024L701.837 488.25L702.065 488.25L702.537 488.25L702.812 488.25L702.786 487.977C696.724 423.993 684.515 350.972 661.287 277.513C643.506 221.268 620.842 170.207 593.927 125.737L593.713 125.867L593.927 125.737C564.32 76.833 529.157 35.2549 489.42 2.17529L489.229 2.01634L489.069 2.20629L488.767 2.56462L488.605 2.75699L488.798 2.91793Z" fill="#00FF85" stroke="#00FF85" stroke-width="0.5"/>
<path d="M824.969 487.997L824.975 488.241L825.218 488.241L825.69 488.241L825.947 488.241L825.94 487.984C824.741 440.346 820.511 389.734 811.588 338.291C800.861 276.416 784.242 219.31 762.191 168.558C737.939 112.741 706.782 63.8715 669.568 23.3018L669.399 23.1175L669.215 23.2867L668.865 23.6073L668.681 23.7763L668.85 23.9604C705.985 64.438 737.085 113.221 761.298 168.946C783.312 219.619 799.912 276.649 810.623 338.461L810.659 338.669L810.669 338.669C819.553 389.984 823.781 440.471 824.969 487.997Z" fill="#00FF85" stroke="#00FF85" stroke-width="0.5"/>
<path d="M770.123 488.004L770.135 488.241L770.372 488.241L770.844 488.241L771.108 488.241L771.094 487.978C768.139 432.105 760.878 371.118 746.44 309.3C732.54 249.764 713.182 195.194 688.912 147.103C662.214 94.2087 629.186 48.452 590.744 11.1179L590.565 10.9439L590.39 11.1229L590.06 11.4623L589.885 11.6417L590.065 11.816C628.426 49.0793 661.384 94.7424 688.04 147.545C712.282 195.559 731.608 250.052 745.491 309.517C759.911 371.264 767.159 432.183 770.123 488.004Z" fill="#00FF85" stroke="#00FF85" stroke-width="0.5"/>
<path d="M788.813 328.296L788.813 328.306L788.818 328.329C799.444 383.317 804.616 437.467 806.334 488.009L806.342 488.25L806.584 488.25L807.056 488.25L807.315 488.25L807.306 487.992C805.587 437.401 800.413 383.205 789.771 328.15C777.959 267.039 760.404 210.772 737.588 160.897C712.496 106.042 680.687 58.2099 643.048 18.725L642.876 18.545L642.695 18.7157L642.356 19.0363L642.173 19.2087L642.346 19.3906C679.915 58.7936 711.665 106.54 736.709 161.294C759.485 211.084 777.017 267.266 788.813 328.296Z" fill="#00FF85" stroke="#00FF85" stroke-width="0.5"/>
<path d="M788.049 488.002L788.059 488.241L788.299 488.241L788.771 488.241L789.032 488.241L789.021 487.98C786.707 434.645 780.532 376.987 768.049 318.47C755.179 258.142 736.718 202.714 713.156 153.736C687.251 99.8612 654.819 53.0669 616.764 14.6574L616.59 14.4816L616.412 14.654L616.072 14.984L615.891 15.16L616.069 15.3394C654.043 53.6678 686.416 100.377 712.28 154.16C735.795 203.07 754.244 258.421 767.098 318.678C779.564 377.126 785.737 434.726 788.049 488.002Z" fill="#00FF85" stroke="#00FF85" stroke-width="0.5"/>
<path d="M322.222 488.117L322.294 488.241L322.437 488.241L322.985 488.241L323.421 488.241L323.2 487.864C318.277 479.473 312.854 471.442 308.229 464.597C305.472 460.513 303.096 456.991 301.249 454.025C268.541 401.547 213.746 325.474 138.454 261.076C65.1828 198.412 -10.4836 161.28 -86.458 150.749L-86.7052 150.714L-86.7399 150.962L-86.806 151.433L-86.8407 151.681L-86.5927 151.715C-10.8292 162.221 64.6758 199.253 137.818 261.814C213.018 326.13 267.745 402.118 300.419 454.544L300.492 454.662L300.502 454.662C302.353 457.621 304.709 461.113 307.428 465.141L307.635 465.001L307.428 465.141C312.007 471.912 317.355 479.846 322.222 488.117Z" fill="#00FF85" stroke="#00FF85" stroke-width="0.5"/>
<path d="M60.6191 71.017C139.432 96.2934 213.042 149.766 279.398 229.964L279.389 229.964L279.727 230.374C348.031 313.054 392.293 404.391 417.407 466.453C418.811 469.925 420.661 474.062 422.795 478.832L422.905 479.078C424.179 481.926 425.529 484.952 426.907 488.091L426.972 488.241L427.136 488.241L427.655 488.241L428.037 488.241L427.884 487.891C426.477 484.674 425.098 481.59 423.795 478.685L423.536 478.106C421.464 473.475 419.672 469.468 418.315 466.096L418.314 466.096C393.18 403.97 348.867 312.544 280.48 229.753C213.934 149.197 140.067 95.4718 60.9134 70.0883L60.6736 70.0114L60.5984 70.2517L60.4569 70.7043L60.3827 70.9412L60.6191 71.017Z" fill="#00FF85" stroke="#00FF85" stroke-width="0.5"/>
<path d="M369.226 488.114L369.295 488.25L369.448 488.25L369.977 488.25L370.385 488.25L370.199 487.886C366.373 480.403 362.311 473.251 358.762 467.009L358.383 466.341C356.022 462.182 353.978 458.58 352.385 455.531C322.765 398.706 272.191 315.729 199.507 243.201C128.777 172.624 53.5373 128.247 -24.1354 111.327L-24.378 111.274L-24.4325 111.516L-24.5364 111.979L-24.5915 112.224L-24.3457 112.278C53.1179 129.153 128.2 173.424 198.814 243.885C271.402 316.327 321.92 399.208 351.517 455.98C353.2 459.21 355.383 463.052 357.912 467.492C361.424 473.669 365.434 480.727 369.226 488.114Z" fill="#00FF85" stroke="#00FF85" stroke-width="0.5"/>
<path d="M357.635 488.107L357.705 488.241L357.856 488.241L358.384 488.241L358.799 488.241L358.606 487.874C354.42 479.928 349.905 472.332 345.997 465.76C343.41 461.412 341.184 457.663 339.46 454.509C309.028 398.758 257.339 317.508 183.928 247.017C112.498 178.42 37.0979 135.883 -40.188 120.595L-40.4317 120.547L-40.4814 120.79L-40.5758 121.253L-40.6262 121.499L-40.3794 121.548C36.6968 136.793 111.939 179.235 183.251 247.717C256.565 318.122 308.197 399.287 338.596 454.975L338.667 455.105L338.686 455.105C340.314 458.081 342.383 461.567 344.762 465.572L345.171 466.26L345.386 466.133L345.171 466.261C349.041 472.768 353.494 480.268 357.635 488.107Z" fill="#00FF85" stroke="#00FF85" stroke-width="0.5"/>
<path d="M345.94 488.11L346.011 488.241L346.16 488.241L346.698 488.241L347.118 488.241L346.917 487.871C342.458 479.675 337.588 471.833 333.397 465.083L333.317 464.954L333.129 464.651C330.564 460.516 328.349 456.944 326.628 453.93L326.411 454.054L326.628 453.93C295.403 399.263 242.638 319.729 168.566 251.275C96.4749 184.66 20.9511 143.943 -55.9197 130.26L-56.1644 130.216L-56.2093 130.461L-56.2943 130.923L-56.3398 131.17L-56.0922 131.214C20.5779 144.858 95.9423 185.481 167.905 251.982C241.889 320.351 294.596 399.791 325.788 454.404L326.005 454.28L325.788 454.404C327.566 457.511 329.853 461.202 332.495 465.463L332.639 465.695C336.77 472.357 341.549 480.064 345.94 488.11Z" fill="#00FF85" stroke="#00FF85" stroke-width="0.5"/>
<path d="M-8.01915 103.394C69.7998 121.909 144.681 168.023 214.547 240.477L214.547 240.477C286.371 314.965 335.728 399.552 364.485 457.399C366.086 460.626 368.158 464.439 370.555 468.852L370.71 469.138L370.93 469.018L370.711 469.138C373.826 474.862 377.335 481.327 380.713 488.111L380.782 488.25L380.936 488.25L381.465 488.25L381.868 488.25L381.689 487.889C378.279 481.01 374.718 474.462 371.565 468.673C369.1 464.145 366.979 460.246 365.358 456.97L365.358 456.969C336.578 399.068 287.175 314.385 215.256 239.81C145.272 167.233 70.2316 121.016 -7.79012 102.445L-8.0317 102.388L-8.09082 102.629L-8.2041 103.091L-8.26403 103.336L-8.01915 103.394Z" fill="#00FF85" stroke="#00FF85" stroke-width="0.5"/>
<path d="M230.402 237.328C161.345 162.92 86.709 114.97 8.59045 94.793L8.3502 94.731L8.41045 94.4902L8.52376 94.0376L8.58492 93.7933L8.82881 93.8563C87.1712 114.097 161.985 162.172 231.175 236.739C302.272 313.371 350.476 399.751 378.387 458.718M230.402 237.328L378.161 458.825M230.402 237.328L230.402 237.337L230.469 237.409C301.481 313.943 349.631 400.227 377.52 459.139L377.746 459.032L230.402 237.328ZM378.387 458.718L378.161 458.825M378.387 458.718C378.387 458.718 378.387 458.718 378.387 458.718L378.161 458.825M378.387 458.718C379.971 462.051 382.026 466.036 384.424 470.648L384.203 470.763C381.805 466.152 379.747 462.163 378.161 458.825M392.916 487.981L392.691 488.09C392.673 488.054 392.656 488.018 392.638 487.981L392.916 487.981ZM392.916 487.981L392.916 487.731L392.795 487.731C392.835 487.815 392.875 487.898 392.916 487.981ZM8.76627 94.0983L9.00879 94.159L9.00831 94.161C8.92763 94.14 8.84696 94.1192 8.76627 94.0983ZM8.76627 94.0983L8.70373 94.3404C8.70434 94.3405 8.70495 94.3407 8.70556 94.3409L8.76627 94.0983ZM383.575 471.095L383.797 470.98L383.575 471.095L383.575 471.095Z" fill="#00FF85" stroke="#00FF85" stroke-width="0.5"/>
<path d="M404.87 463.291C378.782 402.212 333.128 312.455 263.787 231.72C196.316 153.164 122.089 101.335 43.1806 77.6777L42.9394 77.6054L42.8689 77.8471L42.7367 78.2997L42.6671 78.538L42.9049 78.6093C121.592 102.188 195.646 153.89 262.999 232.278L262.999 232.287L263.059 232.357C332.316 312.992 377.918 402.651 403.986 463.676C405.47 467.151 407.417 471.286 409.672 476.075C411.437 479.818 413.344 483.862 415.259 488.094L415.325 488.241L415.487 488.241L416.006 488.241L416.394 488.241L416.234 487.887C414.279 483.576 412.343 479.463 410.549 475.663C408.292 470.872 406.35 466.746 404.87 463.291ZM404.87 463.291L404.64 463.389L404.87 463.29C404.87 463.291 404.87 463.291 404.87 463.291ZM43.1088 77.9172L43.3488 77.9872L43.3483 77.9891C43.2685 77.9651 43.1887 77.9411 43.1088 77.9172ZM43.1088 77.9172L43.0371 78.1566C43.0376 78.1568 43.0382 78.157 43.0388 78.1572L43.1088 77.9172ZM416.006 487.991L415.731 487.991C415.747 488.025 415.763 488.06 415.778 488.094L416.006 487.991ZM416.006 487.991L416.006 487.741L415.892 487.741C415.93 487.824 415.968 487.907 416.006 487.991Z" fill="#00FF85" stroke="#00FF85" stroke-width="0.5"/>
<path d="M25.5872 86.5503C103.891 108.39 178.139 158.09 246.293 234.292L246.274 234.292L246.646 234.709C316.809 313.288 363.704 401.269 390.696 461.238C392.227 464.647 394.241 468.716 396.572 473.42C398.809 477.937 401.262 482.894 403.696 488.097L403.764 488.241L403.923 488.241L404.442 488.241L404.835 488.241L404.668 487.885C402.328 482.888 399.971 478.11 397.813 473.738L397.445 472.991L397.444 472.991L397.408 472.917C395.1 468.251 393.105 464.216 391.586 460.844C364.573 400.812 317.625 312.743 247.378 234.065C179.018 157.508 104.488 107.556 25.8443 85.6161L25.6017 85.5484L25.5358 85.7914L25.4131 86.2441L25.3481 86.4836L25.5872 86.5503Z" fill="#00FF85" stroke="#00FF85" stroke-width="0.5"/>
<path d="M319.914 465.099L319.914 465.1C324.323 471.899 329.455 479.842 334.142 488.123L334.214 488.25L334.36 488.25L334.898 488.25L335.326 488.25L335.116 487.877C330.417 479.549 325.254 471.566 320.83 464.727L320.731 464.573L320.521 464.709L320.731 464.573C318.03 460.404 315.701 456.806 313.891 453.775C281.911 400.202 228.116 322.394 153.401 255.968C80.6967 191.333 5.08742 152.418 -71.3493 140.32L-71.5949 140.281L-71.6351 140.527L-71.7106 140.989L-71.7512 141.237L-71.503 141.276C4.72327 153.337 80.1721 192.159 152.758 256.691C227.373 323.033 281.109 400.747 313.056 454.266C314.74 457.096 316.878 460.404 319.333 464.2L319.914 465.099Z" fill="#00FF85" stroke="#00FF85" stroke-width="0.5"/>
<path d="M287.653 454.841L287.643 454.841L287.894 455.227C289.795 458.146 292.224 461.601 295.036 465.598C299.709 472.237 305.171 480.001 310.16 488.122L310.233 488.241L310.373 488.241L310.93 488.241L311.376 488.241L311.143 487.86C306.118 479.654 300.607 471.815 295.9 465.12L295.842 465.037L295.841 465.036C293.028 461.047 290.614 457.6 288.719 454.69C255.313 403.316 199.563 328.969 123.734 266.589C49.9331 205.887 -25.7527 170.538 -101.236 161.545L-101.484 161.515L-101.514 161.763L-101.571 162.235L-101.601 162.483L-101.352 162.513C-26.0796 171.483 49.4438 206.743 123.114 267.343C198.663 329.485 254.253 403.532 287.653 454.841Z" fill="#00FF85" stroke="#00FF85" stroke-width="0.5"/>
<path d="M282.748 466.478L282.95 466.331L282.748 466.479L282.869 466.645C287.516 472.992 292.926 480.384 297.919 488.126L297.993 488.241L298.129 488.241L298.686 488.241L299.144 488.241L298.896 487.856C293.804 479.927 288.267 472.359 283.529 465.9L283.198 465.448C280.477 461.735 278.123 458.523 276.275 455.79L276.275 455.79C242.189 405.518 185.542 332.907 109.202 272.536C34.9194 213.787 -40.7574 180.193 -115.722 172.718L-115.971 172.694L-115.995 172.942L-116.043 173.414L-116.068 173.663L-115.819 173.687C-41.0656 181.14 34.4385 214.647 108.599 273.296C184.828 333.586 241.423 406.115 275.474 456.334C277.272 458.99 279.534 462.083 282.135 465.64L282.748 466.478Z" fill="#00FF85" stroke="#00FF85" stroke-width="0.5"/>
</svg>
