<svg width="1172" height="169" viewBox="0 0 1172 169" fill="none" xmlns="http://www.w3.org/2000/svg">
<path d="M511.711 61.6389L511.72 61.6389L511.376 61.2283C480.333 24.2154 452.241 -19.4736 427.893 -68.6145C383.888 -157.434 359.368 -248.519 345.768 -319.038L345.729 -319.241L345.523 -319.241L345.041 -319.241L344.738 -319.241L344.796 -318.944C358.401 -248.349 382.951 -157.142 427.02 -68.1851C451.402 -18.9755 479.525 24.776 510.625 61.8513C544.832 102.634 583.104 135.874 624.382 160.652L624.596 160.78L624.725 160.567L624.97 160.161L625.1 159.947L624.885 159.817C583.845 135.183 545.771 102.149 511.711 61.6389Z" fill="#00FF85" stroke="#00FF85" stroke-width="0.5"/>
<path d="M359.757 -319.041L359.716 -319.241L359.513 -319.241L359.031 -319.241L358.724 -319.241L358.786 -318.94C373.346 -248.355 399.604 -155.412 446.459 -65.2293C471.549 -16.9346 500.258 25.8832 531.783 62.0342C566.453 101.789 605.018 134.01 646.391 157.769L646.607 157.892L646.732 157.678L646.968 157.272L647.094 157.055L646.876 156.93C605.593 133.22 567.118 101.074 532.518 61.3944L532.444 61.3087L532.434 61.3087C500.996 25.2376 472.354 -17.4791 447.318 -65.6767C400.539 -155.721 374.311 -248.522 359.757 -319.041Z" fill="#00FF85" stroke="#00FF85" stroke-width="0.5"/>
<path d="M373.492 -319.054L373.449 -319.25L373.248 -319.25L372.766 -319.25L372.455 -319.25L372.522 -318.946C388.016 -248.541 416.022 -153.975 465.672 -62.7357C491.461 -15.3558 520.717 26.5283 552.639 61.7548L552.824 61.587L552.639 61.7549C587.753 100.491 626.573 131.683 668.032 154.442L668.251 154.563L668.371 154.343L668.598 153.928L668.717 153.709L668.499 153.589C627.141 130.879 588.411 99.7602 553.359 61.0985C521.495 25.9427 492.27 -15.8797 466.526 -63.201C416.953 -154.292 388.98 -248.714 373.492 -319.054Z" fill="#00FF85" stroke="#00FF85" stroke-width="0.5"/>
<path d="M287.28 -319.026L287.25 -319.241L287.033 -319.241L286.551 -319.241L286.263 -319.241L286.304 -318.956C296.038 -250.125 314.073 -167.048 347.32 -84.5535C368.595 -31.7602 394.177 15.6791 423.369 56.4708C455.47 101.329 492.38 138.719 533.063 167.6L533.267 167.745L533.412 167.541L533.686 167.154L533.83 166.95L533.626 166.806C493.031 137.988 456.206 100.677 424.163 55.8969C395.025 15.1793 369.48 -32.1959 348.228 -84.9196C315.028 -167.301 297.011 -250.27 287.28 -319.026Z" fill="#00FF85" stroke="#00FF85" stroke-width="0.5"/>
<path d="M331.543 -319.044L331.506 -319.25L331.297 -319.25L330.815 -319.25L330.516 -319.25L330.569 -318.956C343.212 -248.522 366.071 -159.173 407.383 -71.5935C431.019 -21.4785 458.546 23.2067 489.202 61.2064C522.919 103.008 560.888 137.285 602.053 163.072L602.262 163.204L602.396 162.996L602.651 162.6L602.788 162.387L602.573 162.253C561.507 136.517 523.616 102.316 489.969 60.6002C459.369 22.6635 431.881 -21.9588 408.27 -72.0048C367.02 -159.457 344.18 -248.685 331.543 -319.044Z" fill="#00FF85" stroke="#00FF85" stroke-width="0.5"/>
<path d="M556.939 165.756C516.289 138.06 479.189 101.922 446.651 58.3386L446.66 58.3386L446.362 57.9392C416.715 18.1454 390.491 -28.3152 368.437 -80.1526C332.594 -164.381 313.001 -249.556 302.318 -319.038L302.285 -319.25L302.07 -319.25L301.589 -319.25L301.298 -319.25L301.342 -318.962C312.04 -249.405 331.651 -164.131 367.543 -79.7777C389.629 -27.8709 415.882 18.6535 445.584 58.5208L445.784 58.3715L445.584 58.5209C478.252 102.36 515.531 138.712 556.393 166.556L556.599 166.697L556.74 166.491L557.005 166.104L557.146 165.897L556.939 165.756Z" fill="#00FF85" stroke="#00FF85" stroke-width="0.5"/>
<path d="M467.85 58.9234L467.85 58.9321C437.894 20.189 411.182 -25.1489 388.448 -75.8477C349.916 -161.773 328.728 -249.022 317.062 -319.041L317.027 -319.25L316.816 -319.25L316.334 -319.25L316.039 -319.25L316.088 -318.959C327.758 -248.874 348.974 -161.496 387.557 -75.4545C410.428 -24.4437 437.332 21.1659 467.525 60.0994C500.731 102.92 538.36 138.235 579.393 165.05L579.604 165.188L579.74 164.976L579.995 164.58L580.129 164.371L579.921 164.236C538.987 137.482 501.436 102.244 468.298 59.5007L467.85 58.9234Z" fill="#00FF85" stroke="#00FF85" stroke-width="0.5"/>
<path d="M594.616 -57.9477L594.606 -57.9383C529.555 -146.7 489.61 -242.876 467.554 -307.954C466.476 -311.136 465.077 -314.856 463.473 -319.089L463.411 -319.25L463.239 -319.25L462.739 -319.25L462.376 -319.25L462.505 -318.911C464.138 -314.611 465.553 -310.853 466.636 -307.643L466.636 -307.642C488.731 -242.451 528.766 -146.065 593.998 -57.1344C657.474 29.4106 730.047 88.862 809.718 119.576L809.952 119.667L810.041 119.433L810.211 118.989L810.301 118.756L810.068 118.667C730.6 88.0323 658.166 28.6992 594.788 -57.713L594.616 -57.9477Z" fill="#00FF85" stroke="#00FF85" stroke-width="0.5"/>
<path d="M451.316 -319.074L451.257 -319.241L451.08 -319.241L450.58 -319.241L450.227 -319.241L450.344 -318.908C451.25 -316.334 452.061 -313.98 452.73 -311.871L452.968 -311.947L452.73 -311.871C473.757 -245.681 512.272 -147.672 576.352 -56.6857C638.704 31.8494 710.766 93.2345 790.541 125.751L790.771 125.845L790.866 125.615L791.046 125.181L791.142 124.949L790.909 124.854C711.328 92.4104 639.412 31.1544 577.147 -57.2471C513.146 -148.12 474.669 -246.029 453.65 -312.164L453.412 -312.088L453.65 -312.164C452.988 -314.242 452.204 -316.555 451.316 -319.074Z" fill="#00FF85" stroke="#00FF85" stroke-width="0.5"/>
<path d="M387.009 -319.057L386.964 -319.25L386.766 -319.25L386.284 -319.25L385.969 -319.25L386.041 -318.943C402.451 -248.877 432.232 -152.802 484.686 -60.6664C511.136 -14.2013 540.931 26.7396 573.231 61.0323L573.413 60.8609L573.231 61.0323C608.761 98.7499 647.826 128.914 689.332 150.682L689.554 150.798L689.67 150.577L689.887 150.162L690.003 149.94L689.782 149.824C648.367 128.103 609.393 98.0125 573.934 60.3689L573.789 60.506L573.934 60.3689C541.684 26.1369 511.941 -14.7521 485.527 -61.1495C433.151 -153.136 403.413 -249.066 387.009 -319.057Z" fill="#00FF85" stroke="#00FF85" stroke-width="0.5"/>
<path d="M378.548 49.6267L378.548 49.6347C350.691 7.22968 326.709 -41.7253 307.262 -95.896C279.186 -174.092 264.17 -252.291 256.337 -319.029L256.311 -319.25L256.088 -319.25L255.616 -319.25L255.335 -319.25L255.368 -318.971C263.214 -252.168 278.246 -173.874 306.357 -95.5762C325.932 -41.0381 350.107 8.22134 378.203 50.8522C409.104 97.738 445.183 137.222 485.45 168.198L485.65 168.352L485.802 168.15L486.085 167.773L486.234 167.575L486.038 167.424C445.867 136.523 409.862 97.1196 379.007 50.3224L378.548 49.6267Z" fill="#00FF85" stroke="#00FF85" stroke-width="0.5"/>
<path d="M611.725 -59.1344L611.725 -59.1256C545.739 -145.746 504.405 -240.11 481.344 -304.092C480.03 -307.737 478.272 -312.107 476.243 -317.15C475.988 -317.792 475.723 -318.444 475.459 -319.094L475.396 -319.25L475.228 -319.25L474.718 -319.25L474.35 -319.25L474.485 -318.908C474.638 -318.522 474.796 -318.132 474.952 -317.748C475.083 -317.425 475.212 -317.105 475.335 -316.796L475.335 -316.795C477.366 -311.748 479.11 -307.406 480.42 -303.772C503.563 -239.59 545.062 -144.844 611.398 -57.9604C675.942 26.5852 748.987 84.1311 828.517 113.043L828.753 113.129L828.838 112.894L828.998 112.45L829.083 112.216L828.849 112.13C749.514 83.2865 676.617 25.867 612.173 -58.5467L611.725 -59.1344Z" fill="#00FF85" stroke="#00FF85" stroke-width="0.5"/>
<path d="M413.383 -319.064L413.334 -319.25L413.141 -319.25L412.65 -319.25L412.326 -319.25L412.408 -318.937C430.565 -250.021 463.953 -151.296 522.036 -57.8293C580.743 36.6476 651.009 103.853 730.886 141.917L731.11 142.023L731.218 141.801L731.426 141.377L731.537 141.15L731.309 141.041C651.613 103.075 581.479 36.0027 522.866 -58.3383L522.793 -58.4564L522.784 -58.4564C464.847 -151.727 431.515 -250.243 413.383 -319.064Z" fill="#00FF85" stroke="#00FF85" stroke-width="0.5"/>
<path d="M400.29 -319.051L400.243 -319.241L400.048 -319.241L399.557 -319.241L399.237 -319.241L399.314 -318.931C416.612 -249.364 448.196 -151.903 503.465 -59.0215L503.68 -59.1493L503.465 -59.0215C530.566 -13.4901 560.861 26.5264 593.53 59.8854C629.457 96.5842 668.74 125.739 710.284 146.516L710.509 146.629L710.62 146.403L710.828 145.978L710.937 145.756L710.715 145.645C631.057 105.794 561.602 36.7702 504.3 -59.5224C449.122 -152.244 417.581 -249.56 400.29 -319.051Z" fill="#00FF85" stroke="#00FF85" stroke-width="0.5"/>
<path d="M540.727 -58.2782L540.727 -58.2698C480.244 -151.793 445.19 -251.171 426.267 -319.058L426.216 -319.241L426.027 -319.241L425.536 -319.241L425.206 -319.241L425.295 -318.924C444.273 -250.8 479.492 -150.924 540.371 -57.0331C600.343 35.4632 671.252 100.725 751.13 136.921L751.357 137.024L751.46 136.797L751.659 136.364L751.763 136.136L751.534 136.032C671.849 99.9222 601.073 34.792 541.187 -57.5692L540.727 -58.2782Z" fill="#00FF85" stroke="#00FF85" stroke-width="0.5"/>
<path d="M438.933 -319.076L438.878 -319.25L438.695 -319.25L438.204 -319.25L437.863 -319.25L437.966 -318.925C438.23 -318.086 438.484 -317.268 438.71 -316.488L438.71 -316.487C458.642 -249.297 495.599 -149.685 558.479 -56.6614C619.67 33.8543 691.174 97.1826 771.015 131.53L771.243 131.628L771.343 131.4L771.532 130.966L771.632 130.736L771.401 130.636C691.754 96.3737 620.384 33.1759 559.29 -57.2054L559.216 -57.3154L559.206 -57.3154C496.448 -150.193 459.549 -249.663 439.643 -316.761C439.425 -317.498 439.189 -318.273 438.933 -319.076Z" fill="#00FF85" stroke="#00FF85" stroke-width="0.5"/>
<path d="M271.95 -319.023L271.922 -319.241L271.702 -319.241L271.23 -319.241L270.946 -319.241L270.982 -318.959C279.763 -251.043 296.277 -170.296 326.928 -89.8197C347.372 -36.1493 372.255 12.2048 400.908 53.9208L401.114 53.7793L400.908 53.9208C432.424 99.7879 468.928 138.225 509.412 168.144L509.612 168.292L509.761 168.093L510.044 167.716L510.195 167.515L509.992 167.365C469.595 137.51 433.166 99.1527 401.708 53.3642C373.098 11.7228 348.242 -36.5669 327.83 -90.1674C297.225 -170.531 280.728 -251.181 271.95 -319.023Z" fill="#00FF85" stroke="#00FF85" stroke-width="0.5"/>
<path d="M42.9012 -318.991L42.9011 -319.241L42.6512 -319.241L42.1792 -319.241L41.9291 -319.241L41.9292 -318.991C41.9481 -281.424 43.8553 -242.367 48.4066 -202.686C55.7528 -138.595 69.4071 -79.0466 89.0121 -25.7013C110.572 32.974 139.641 84.937 175.4 128.733L175.559 128.927L175.752 128.768L176.121 128.466L176.314 128.308L176.156 128.115C140.473 84.4041 111.458 32.5474 89.9345 -26.0341L89.6999 -25.9478L89.9345 -26.0341C70.3543 -79.2997 56.7082 -138.771 49.3753 -202.79L49.3654 -202.877L49.356 -202.887C44.8237 -242.498 42.92 -281.488 42.9012 -318.991Z" fill="#00FF85" stroke="#00FF85" stroke-width="0.5"/>
<path d="M27.2288 -214.902C23.8603 -250.326 22.558 -285.223 22.7845 -318.989L22.7862 -319.241L22.5345 -319.241L22.0625 -319.241L21.8142 -319.241L21.8125 -318.993C21.5859 -285.189 22.889 -250.263 26.2599 -214.799C32.4259 -150 45.0507 -89.6689 63.7963 -35.4749C84.4119 24.1341 112.725 77.1158 147.946 121.987L148.101 122.185L148.298 122.028L148.666 121.736L148.861 121.581L148.707 121.386C113.553 76.6005 85.2929 23.7163 64.7125 -35.7986C46.0004 -89.9221 33.3829 -150.176 27.2297 -214.903L27.2288 -214.902Z" fill="#00FF85" stroke="#00FF85" stroke-width="0.5"/>
<path d="M93.4239 -180.056L93.4239 -180.065L93.4209 -180.084C86.0975 -227.7 82.7282 -274.554 81.9921 -318.995L81.988 -319.241L81.7421 -319.241L81.2701 -319.241L81.0159 -319.241L81.0201 -318.987C81.7566 -274.507 85.1368 -227.602 92.4547 -179.933C102.077 -117.303 117.742 -59.3766 138.991 -7.7479L139.217 -7.84088L138.991 -7.74784C162.373 49.0317 192.86 98.9386 229.611 140.574L229.775 140.76L229.962 140.598L230.321 140.286L230.511 140.121L230.344 139.932C193.672 98.3801 163.232 48.5691 139.897 -8.11736C118.677 -59.6619 103.041 -117.505 93.4239 -180.056Z" fill="#00FF85" stroke="#00FF85" stroke-width="0.5"/>
<path d="M62.6306 -319.002L62.6286 -319.25L62.3806 -319.25L61.9086 -319.25L61.6566 -319.25L61.6587 -318.998C61.9986 -277.876 64.6045 -234.829 70.4683 -191.074C78.9665 -127.709 93.6407 -68.9617 114.077 -16.4747C136.562 41.2575 166.35 92.1924 202.619 134.913L202.78 135.103L202.97 134.942L203.329 134.641L203.521 134.479L203.359 134.288C167.167 91.6514 137.426 40.8128 114.986 -16.8258C94.5759 -69.2429 79.9201 -127.904 71.4359 -191.206L71.4068 -191.423L71.3974 -191.423C65.5572 -235.052 62.9698 -277.985 62.6306 -319.002Z" fill="#00FF85" stroke="#00FF85" stroke-width="0.5"/>
<path d="M5.05633 -227.458L5.05633 -227.467L5.05563 -227.477C2.70569 -258.539 1.91288 -289.178 2.31871 -318.997L2.32216 -319.25L2.06873 -319.25L1.59674 -319.25L1.3502 -319.25L1.34676 -319.004C0.93131 -289.162 1.72446 -258.499 4.08506 -227.401C9.04233 -161.915 20.6189 -100.81 38.4768 -45.7671C58.1195 14.7662 85.6492 68.757 120.312 114.713L120.462 114.912L120.662 114.762L121.039 114.48L121.24 114.329L121.089 114.129C86.4911 68.2689 59.0046 14.376 39.396 -46.0629C21.5623 -101.013 10.0114 -162.047 5.05633 -227.458Z" fill="#00FF85" stroke="#00FF85" stroke-width="0.5"/>
<path d="M628.887 -60.3375L628.887 -60.3287C561.839 -144.913 519.091 -237.639 495.011 -300.598C493.65 -304.162 491.841 -308.424 489.754 -313.341L489.712 -313.44L489.504 -313.352L489.712 -313.44C488.938 -315.26 488.136 -317.155 487.314 -319.098L487.25 -319.25L487.084 -319.25L486.574 -319.25L486.199 -319.25L486.344 -318.904C487.184 -316.894 488.015 -314.942 488.818 -313.065L489.015 -312.602C491.037 -307.837 492.786 -303.716 494.11 -300.259C518.263 -237.105 561.197 -144.01 628.573 -59.173C694.136 23.3825 767.616 79.0041 846.977 106.143L847.214 106.224L847.295 105.987L847.446 105.543L847.526 105.307L847.29 105.226C768.135 78.1541 694.805 22.6481 629.332 -59.7763L628.887 -60.3375Z" fill="#00FF85" stroke="#00FF85" stroke-width="0.5"/>
<path d="M240.412 -319.027L240.388 -319.25L240.163 -319.25L239.691 -319.25L239.413 -319.25L239.443 -318.974C246.382 -253.482 259.979 -177.753 285.606 -101.795C304.303 -46.3986 327.732 3.76627 355.242 47.3215L355.453 47.188L355.242 47.3215C385.51 95.2259 421.145 135.748 461.157 167.771L461.353 167.927L461.509 167.731L461.801 167.363L461.957 167.168L461.762 167.012C421.836 135.065 386.275 94.6151 356.061 46.7999C328.593 3.32008 305.19 -46.7797 286.524 -102.106C260.92 -177.964 247.339 -253.598 240.412 -319.027Z" fill="#00FF85" stroke="#00FF85" stroke-width="0.5"/>
<path d="M173.427 -319.007L173.412 -319.241L173.177 -319.241L172.705 -319.241L172.439 -319.241L172.456 -318.975C176.119 -260.764 184.523 -196.58 201.019 -131.611C215.929 -72.8855 236.146 -19.1745 261.116 28.012C288.579 79.9155 322.173 124.625 360.975 160.893L361.159 161.065L361.33 160.88L361.651 160.531L361.819 160.348L361.637 160.179C322.918 123.99 289.385 79.3643 261.973 27.5519C237.044 -19.5669 216.849 -73.2022 201.957 -131.856C185.489 -196.742 177.089 -260.857 173.427 -319.007Z" fill="#00FF85" stroke="#00FF85" stroke-width="0.5"/>
<path d="M190.683 -319.009L190.666 -319.241L190.434 -319.241L189.962 -319.241L189.693 -319.241L189.712 -318.973C194.131 -258.63 203.743 -191.38 222.392 -123.421C238.284 -65.507 259.342 -12.6731 284.983 33.608C313.182 84.5211 347.325 128.184 386.466 163.386L386.653 163.554L386.82 163.367L387.132 163.018L387.297 162.832L387.112 162.665C348.054 127.542 313.983 83.9619 285.826 33.1394C260.226 -13.0744 239.191 -65.8329 223.327 -123.676C204.708 -191.55 195.1 -258.729 190.683 -319.009Z" fill="#00FF85" stroke="#00FF85" stroke-width="0.5"/>
<path d="M412.276 164.623C372.909 130.558 338.312 88.0287 309.449 38.2104L309.452 38.2083C283.201 -7.10038 261.364 -58.9821 244.528 -115.996C223.662 -186.698 212.781 -256.817 207.571 -319.021L207.552 -319.25L207.322 -319.25L206.85 -319.25L206.578 -319.25L206.601 -318.979C211.822 -256.713 222.709 -186.511 243.596 -115.722C260.441 -58.6377 282.321 -6.69035 308.604 38.6946L308.797 38.5825L308.604 38.6947C337.521 88.608 372.183 131.224 411.637 165.36L411.826 165.523L411.989 165.335L412.301 164.977L412.465 164.787L412.276 164.623Z" fill="#00FF85" stroke="#00FF85" stroke-width="0.5"/>
<path d="M332.906 42.8278L332.906 42.8183L332.87 42.7586C305.996 -1.63557 283.367 -52.6311 265.606 -108.805C242.409 -182.166 230.206 -255.104 224.157 -319.024L224.135 -319.25L223.908 -319.25L223.436 -319.25L223.161 -319.25L223.187 -318.977C229.248 -254.993 241.457 -181.972 264.686 -108.513C282.467 -52.2683 305.13 -1.20739 332.046 43.2627L332.25 43.1391L332.046 43.2627C361.653 92.1669 396.815 133.745 436.553 166.825L436.744 166.984L436.904 166.794L437.206 166.435L437.368 166.243L437.175 166.082C397.529 133.093 362.451 91.6258 332.906 42.8278Z" fill="#00FF85" stroke="#00FF85" stroke-width="0.5"/>
<path d="M101.004 -318.997L100.998 -319.241L100.754 -319.241L100.282 -319.241L100.026 -319.241L100.032 -318.985C101.231 -271.346 105.461 -220.734 114.385 -169.291C125.111 -107.416 141.731 -50.3102 163.782 0.44146C188.034 56.259 219.191 105.128 256.405 145.698L256.574 145.882L256.758 145.713L257.107 145.393L257.291 145.224L257.122 145.039C219.987 104.562 188.888 55.7785 164.675 0.0536123C142.66 -50.6193 126.061 -107.649 115.349 -169.462L115.313 -169.669L115.304 -169.669C106.419 -220.984 102.192 -271.471 101.004 -318.997Z" fill="#00FF85" stroke="#00FF85" stroke-width="0.5"/>
<path d="M155.85 -319.004L155.837 -319.241L155.6 -319.241L155.128 -319.241L154.865 -319.241L154.879 -318.978C157.834 -263.105 165.095 -202.119 179.533 -140.3C193.432 -80.7638 212.79 -26.1946 237.061 21.8973C263.759 74.7912 296.786 120.548 335.229 157.882L335.408 158.056L335.582 157.877L335.913 157.538L336.087 157.358L335.908 157.184C297.547 119.921 264.589 74.2575 237.932 21.4552C213.691 -26.5592 194.364 -81.0525 180.482 -140.517C166.062 -202.264 158.813 -263.183 155.85 -319.004Z" fill="#00FF85" stroke="#00FF85" stroke-width="0.5"/>
<path d="M137.159 -159.297L137.159 -159.306L137.155 -159.33C126.528 -214.317 121.356 -268.468 119.638 -319.009L119.63 -319.25L119.389 -319.25L118.917 -319.25L118.658 -319.25L118.667 -318.992C120.385 -268.401 125.559 -214.205 136.201 -159.15C148.014 -98.0386 165.568 -41.7718 188.384 8.10264C213.477 62.9582 245.285 110.79 282.925 150.275L283.096 150.455L283.277 150.284L283.617 149.964L283.8 149.791L283.626 149.609C246.058 110.206 214.307 62.4599 189.264 7.70606C166.488 -42.0837 148.956 -98.2661 137.159 -159.297Z" fill="#00FF85" stroke="#00FF85" stroke-width="0.5"/>
<path d="M137.924 -319.002L137.913 -319.241L137.674 -319.241L137.202 -319.241L136.941 -319.241L136.952 -318.98C139.265 -265.645 145.44 -207.987 157.923 -149.47C170.794 -89.1419 189.255 -33.7145 212.817 15.2641C238.722 69.1387 271.154 115.933 309.209 154.342L309.383 154.518L309.561 154.346L309.9 154.016L310.082 153.84L309.904 153.661C271.93 115.332 239.556 68.6227 213.692 14.8399C190.178 -34.0701 171.728 -89.4214 158.875 -149.678C146.408 -208.126 140.236 -265.726 137.924 -319.002Z" fill="#00FF85" stroke="#00FF85" stroke-width="0.5"/>
<path d="M618.544 -296.141L618.359 -296.016L618.544 -296.142C613.966 -302.913 608.617 -310.846 603.751 -319.118L603.678 -319.241L603.535 -319.241L602.988 -319.241L602.551 -319.241L602.772 -318.864C607.695 -310.474 613.118 -302.443 617.743 -295.597C620.5 -291.513 622.876 -287.991 624.724 -285.025C657.431 -232.547 712.227 -156.474 787.518 -92.076C860.79 -29.4122 936.456 7.71964 1012.43 18.2511L1012.68 18.2854L1012.71 18.0382L1012.78 17.5667L1012.81 17.3188L1012.57 17.2844C936.802 6.77846 861.297 -30.2533 788.155 -92.8143C712.954 -157.13 658.227 -233.119 625.554 -285.544L625.481 -285.662L625.471 -285.662C623.619 -288.621 621.264 -292.113 618.544 -296.141Z" fill="#00FF85" stroke="#00FF85" stroke-width="0.5"/>
<path d="M865.353 97.9828C786.54 72.7065 712.931 19.234 646.575 -60.9644L646.584 -60.9644L646.246 -61.3736C577.942 -144.054 533.68 -235.391 508.565 -297.453C507.162 -300.925 505.311 -305.062 503.178 -309.832L503.068 -310.078C501.793 -312.926 500.444 -315.952 499.066 -319.091L499 -319.241L498.837 -319.241L498.318 -319.241L497.936 -319.241L498.089 -318.891C499.496 -315.674 500.874 -312.59 502.177 -309.685C502.177 -309.685 502.177 -309.685 502.177 -309.685L502.436 -309.106C504.508 -304.475 506.3 -300.468 507.658 -297.096L507.658 -297.096C532.793 -234.97 577.106 -143.544 645.492 -60.7535C712.038 19.8026 785.906 73.5281 865.059 98.9116L865.299 98.9885L865.374 98.7482L865.516 98.2955L865.59 98.0586L865.353 97.9828Z" fill="#00FF85" stroke="#00FF85" stroke-width="0.5"/>
<path d="M573.587 -286.532C603.207 -229.706 653.781 -146.73 726.465 -74.2011C797.196 -3.62392 872.435 40.7531 950.108 57.6728L950.351 57.7257L950.405 57.4834L950.509 57.0213L950.564 56.7758L950.318 56.7222C872.855 39.8464 797.772 -4.42412 727.158 -74.8851C654.571 -147.327 604.053 -230.208 574.456 -286.98C572.773 -290.21 570.59 -294.052 568.06 -298.492C564.548 -304.669 560.539 -311.727 556.747 -319.114L556.677 -319.25L556.525 -319.25L555.996 -319.25L555.587 -319.25L555.773 -318.886C559.599 -311.403 563.661 -304.251 567.21 -298.009L567.586 -297.348C569.948 -293.186 571.993 -289.582 573.587 -286.532ZM573.587 -286.532L573.798 -286.641L573.588 -286.532C573.588 -286.532 573.587 -286.532 573.587 -286.532Z" fill="#00FF85" stroke="#00FF85" stroke-width="0.5"/>
<path d="M579.976 -296.76L580.19 -296.888L579.976 -296.76C582.563 -292.412 584.788 -288.663 586.513 -285.509C616.945 -229.758 668.633 -148.508 742.045 -78.0167C813.474 -9.42021 888.875 33.1172 966.161 48.4046L966.404 48.4528L966.454 48.2093L966.548 47.7473L966.599 47.5008L966.352 47.452C889.276 32.2063 814.033 -10.2356 742.721 -78.7168C669.407 -149.122 617.776 -230.287 587.377 -285.975L587.306 -286.105L587.287 -286.105C585.659 -289.081 583.59 -292.566 581.212 -296.571L580.802 -297.261L580.587 -297.133L580.802 -297.261C576.931 -303.768 572.479 -311.268 568.338 -319.108L568.267 -319.241L568.117 -319.241L567.588 -319.241L567.174 -319.241L567.367 -318.874C571.552 -310.928 576.068 -303.332 579.976 -296.76Z" fill="#00FF85" stroke="#00FF85" stroke-width="0.5"/>
<path d="M580.032 -319.111L579.961 -319.241L579.813 -319.241L579.275 -319.241L578.854 -319.241L579.055 -318.871C583.514 -310.675 588.384 -302.834 592.575 -296.084L592.656 -295.954L592.843 -295.653C595.408 -291.517 597.623 -287.945 599.344 -284.93C630.569 -230.263 683.334 -150.73 757.407 -82.2756C829.498 -15.6598 905.021 25.0569 981.892 38.7401L982.137 38.7837L982.182 38.5392L982.267 38.0771L982.312 37.8298L982.065 37.7858C905.395 24.142 830.03 -16.4808 758.067 -82.9823C684.084 -151.351 631.376 -230.791 600.184 -285.404L599.976 -285.285L600.184 -285.404C598.407 -288.511 596.12 -292.202 593.477 -296.463L593.332 -296.698C589.201 -303.36 584.423 -311.065 580.032 -319.111Z" fill="#00FF85" stroke="#00FF85" stroke-width="0.5"/>
<path d="M555.262 -300.138L555.042 -300.018L555.262 -300.138C552.147 -305.862 548.637 -312.327 545.26 -319.112L545.191 -319.25L545.036 -319.25L544.507 -319.25L544.104 -319.25L544.283 -318.889C547.694 -312.01 551.255 -305.462 554.408 -299.673C556.872 -295.145 558.993 -291.246 560.614 -287.97L560.615 -287.969C589.394 -230.068 638.797 -145.385 710.716 -70.8099C780.7 1.76686 855.741 47.9834 933.763 66.5544L934.004 66.6119L934.063 66.3707L934.177 65.9087L934.237 65.6642L933.992 65.606C856.173 47.0913 781.291 0.976648 711.425 -71.4774L711.425 -71.4776C639.602 -145.965 590.244 -230.552 561.487 -288.399C559.887 -291.625 557.816 -295.437 555.419 -299.848L555.262 -300.138Z" fill="#00FF85" stroke="#00FF85" stroke-width="0.5"/>
<path d="M917.382 74.2069C839.264 54.0299 764.628 6.07955 695.57 -68.3282L695.57 -68.3376L695.503 -68.4095C624.491 -144.943 576.342 -231.227 548.453 -290.14C546.865 -293.492 544.795 -297.485 542.398 -302.095C542.398 -302.095 542.398 -302.095 542.398 -302.095L542.257 -302.367C539.612 -307.474 536.675 -313.146 533.801 -319.09L533.733 -319.231L533.576 -319.231L533.057 -319.231L532.658 -319.231L532.832 -318.873C535.798 -312.73 538.829 -306.881 541.548 -301.648C543.946 -297.036 546.002 -293.051 547.586 -289.718C575.496 -230.751 623.7 -144.371 694.797 -67.7394C763.988 6.82751 838.801 54.9025 917.144 75.1436L917.388 75.2066L917.449 74.9623L917.562 74.5096L917.622 74.2689L917.382 74.2069Z" fill="#00FF85" stroke="#00FF85" stroke-width="0.5"/>
<path d="M521.102 -294.291C547.191 -233.212 592.845 -143.455 662.185 -62.7206C729.657 15.8359 803.884 67.6653 882.792 91.3222L883.033 91.3945L883.104 91.1528L883.236 90.7001L883.305 90.4619L883.068 90.3906C804.38 66.8123 730.327 15.1099 662.974 -63.2778L662.974 -63.2873L662.914 -63.3575C593.656 -143.992 548.055 -233.651 521.987 -294.676C520.503 -298.151 518.556 -302.286 516.3 -307.075L516.089 -306.975L516.3 -307.075C514.535 -310.818 512.629 -314.862 510.714 -319.094L510.647 -319.241L510.486 -319.241L509.967 -319.241L509.579 -319.241L509.739 -318.888C511.694 -314.576 513.63 -310.464 515.423 -306.663C517.68 -301.872 519.622 -297.746 521.102 -294.291ZM521.102 -294.291L521.332 -294.389L521.103 -294.291C521.103 -294.291 521.102 -294.291 521.102 -294.291ZM882.864 91.0827L882.624 91.0126L882.624 91.0108C882.704 91.0348 882.784 91.0588 882.864 91.0827ZM882.864 91.0827L882.935 90.8432C882.935 90.8431 882.934 90.8429 882.934 90.8427L882.864 91.0827ZM509.967 -318.991L510.241 -318.991C510.226 -319.025 510.21 -319.06 510.194 -319.094L509.967 -318.991ZM509.967 -318.991L509.967 -318.741L510.08 -318.741C510.042 -318.824 510.004 -318.907 509.967 -318.991Z" fill="#00FF85" stroke="#00FF85" stroke-width="0.5"/>
<path d="M900.385 82.4496C822.082 60.6096 747.834 10.9099 679.68 -65.2926L679.698 -65.2926L679.327 -65.7091C609.164 -144.288 562.269 -232.27 535.277 -292.238C533.745 -295.647 531.732 -299.716 529.401 -304.42C527.164 -308.937 524.71 -313.895 522.276 -319.097L522.209 -319.241L522.05 -319.241L521.531 -319.241L521.137 -319.241L521.304 -318.885C523.644 -313.89 526 -309.114 528.157 -304.744L528.528 -303.991L528.528 -303.991L528.566 -303.914C530.873 -299.249 532.868 -295.215 534.386 -291.844C561.4 -231.812 608.348 -143.743 678.595 -65.0649C746.954 11.4921 821.484 61.4442 900.128 83.3838L900.371 83.4515L900.437 83.2084L900.56 82.7558L900.624 82.5163L900.385 82.4496Z" fill="#00FF85" stroke="#00FF85" stroke-width="0.5"/>
<path d="M606.058 -296.099L606.058 -296.1C601.649 -302.899 596.518 -310.842 591.83 -319.123L591.759 -319.25L591.613 -319.25L591.075 -319.25L590.647 -319.25L590.857 -318.877C595.556 -310.548 600.72 -302.564 605.144 -295.725L605.242 -295.573L605.452 -295.709L605.242 -295.573C607.943 -291.404 610.271 -287.806 612.081 -284.775C644.062 -231.202 697.856 -153.395 772.571 -86.9683C845.276 -22.3332 920.885 16.5816 997.322 28.6796L997.567 28.7184L997.608 28.473L997.683 28.0109L997.724 27.7629L997.475 27.7237C921.249 15.663 845.8 -23.1596 773.215 -87.6909C698.599 -154.033 644.863 -231.747 612.916 -285.266C611.233 -288.096 609.094 -291.404 606.639 -295.201L606.058 -296.099Z" fill="#00FF85" stroke="#00FF85" stroke-width="0.5"/>
<path d="M638.32 -285.841L638.33 -285.841L638.078 -286.227C636.178 -289.146 633.749 -292.601 630.936 -296.598C626.263 -303.237 620.802 -311.001 615.813 -319.122L615.74 -319.241L615.6 -319.241L615.043 -319.241L614.597 -319.241L614.83 -318.86C619.854 -310.655 625.365 -302.816 630.072 -296.121L630.131 -296.037L630.131 -296.037C632.945 -292.047 635.359 -288.6 637.253 -285.691C670.659 -234.316 726.409 -159.969 802.239 -97.5893C876.039 -36.8873 951.725 -1.53849 1027.21 7.45486L1027.46 7.4844L1027.49 7.23643L1027.54 6.76495L1027.57 6.5165L1027.32 6.48689C952.052 -2.48313 876.529 -37.743 802.858 -98.3432C727.31 -160.485 671.72 -234.533 638.32 -285.841Z" fill="#00FF85" stroke="#00FF85" stroke-width="0.5"/>
</svg>
