<svg width="24" height="24" viewBox="0 0 24 24" fill="none" xmlns="http://www.w3.org/2000/svg">
<path id="Vector" d="M11.8756 0.134567C5.4634 0.134567 0.265259 5.33271 0.265259 11.745C0.265259 18.1572 5.4634 23.3553 11.8756 23.3553C18.2879 23.3553 23.486 18.1572 23.486 11.745C23.486 5.33271 18.2879 0.134567 11.8756 0.134567ZM16.9286 16.9844C16.781 17.237 16.5153 17.3779 16.2424 17.3779C16.1064 17.3779 15.9685 17.3429 15.8426 17.2693C13.7562 16.05 11.3459 15.854 9.69085 15.9044C7.85757 15.9601 6.51315 16.322 6.49979 16.3257C6.07719 16.4412 5.64046 16.1925 5.52454 15.7699C5.40867 15.3474 5.65648 14.911 6.07887 14.7946C6.13947 14.7779 7.58619 14.385 9.598 14.3186C10.783 14.2795 11.9238 14.3621 12.9883 14.5641C14.3365 14.8198 15.5664 15.2688 16.6437 15.8984C17.0224 16.1196 17.1499 16.6059 16.9286 16.9844ZM18.4047 13.9188C18.2299 14.218 17.9151 14.3848 17.5918 14.3849C17.4307 14.3849 17.2674 14.3435 17.1182 14.2563C14.6469 12.8119 11.7917 12.5799 9.83137 12.6395C7.65976 12.7055 6.06725 13.1342 6.05145 13.1386C5.55098 13.2751 5.03357 12.9808 4.89625 12.4803C4.75899 11.9797 5.05258 11.4628 5.55288 11.325C5.62466 11.3052 7.33832 10.8397 9.72136 10.7611C11.1251 10.7149 12.4764 10.8127 13.7373 11.0518C15.3343 11.3548 16.7911 11.8866 18.0672 12.6324C18.5157 12.8944 18.6668 13.4704 18.4047 13.9188ZM19.3121 11.1314C19.1144 11.1314 18.9141 11.0806 18.7311 10.9736C12.8556 7.53988 5.23404 9.58122 5.15775 9.60229C4.54348 9.77154 3.90846 9.41078 3.73926 8.79656C3.57002 8.18234 3.93077 7.54726 4.545 7.37807C4.63301 7.3538 6.73501 6.78285 9.65805 6.68647C11.38 6.62978 13.0374 6.74968 14.584 7.04305C16.5429 7.41467 18.3299 8.0669 19.8952 8.98172C20.4452 9.30316 20.6305 10.0096 20.3091 10.5597C20.0946 10.9267 19.7086 11.1314 19.3121 11.1314Z" fill="white"/>
</svg>
