<svg width="26" height="23" viewBox="0 0 26 23" fill="none" xmlns="http://www.w3.org/2000/svg">
<path d="M0.137817 19.4233C2.81756 19.5741 5.16089 18.9477 7.44621 17.2888C5.13769 16.8944 3.53681 15.8387 2.66676 13.6578C3.3396 13.565 3.93123 13.739 4.62727 13.4606C2.35355 12.4629 0.88026 10.9664 0.822257 8.37949C1.5415 8.43749 2.08673 8.91312 2.94518 8.84352C0.857065 6.80181 0.219022 4.57449 1.52989 1.87154C3.71081 4.37728 6.26296 6.08257 9.38352 6.88301C9.55753 6.92941 9.71993 6.97582 9.89394 7.01062C10.6944 7.19623 11.6456 7.59065 12.1329 7.53265C12.9681 7.42824 12.1329 6.46539 12.3417 5.21252C13.0029 1.31471 17.2951 -0.460185 20.4737 1.82514C21.4018 2.49797 22.1326 2.48637 23.0491 2.08035C23.5247 1.87154 24.0119 1.66273 24.5803 1.41912C24.4527 2.53278 23.5943 3.14761 22.9099 3.97125C23.6871 4.14526 24.3135 3.92485 25.0328 3.69284C24.7891 4.49328 24.1859 4.94571 23.6407 5.38653C23.0723 5.83895 22.8518 6.31458 22.8286 7.05702C22.4806 18.298 9.70834 26.9869 0.973071 20.0729C0.126225 19.4001 0.949861 20.0729 0.137817 19.4233Z" fill="white"/>
</svg>
