<svg width="100" height="97" viewBox="0 0 100 97" fill="none" xmlns="http://www.w3.org/2000/svg">
<path id="XIDE" fill-rule="evenodd" clip-rule="evenodd" d="M91.8918 27.7627V0.488525H96.969V27.7627H91.8918ZM10.3296 13.2424L1.79999 27.9653V27.9683H7.42794L13.0959 18.1163L18.7639 27.9683H24.3918L15.8806 13.2454L23.0933 0.691113H17.5607L13.099 8.4145L8.65262 0.691113H3.09851L10.3296 13.2424ZM99.9 96.7885V69.5143H82.5761V74.1919H94.8259V81.7067H85.3239V86.3843H94.8259V92.1109H82.9761V96.7885H99.9ZM0.844727 96.7887H28.206H28.2122V88.2801C28.2122 86.6268 27.9383 85.0625 27.3906 83.5902C26.8429 82.1179 26.0336 80.7775 24.9659 79.5721C23.8981 78.3667 22.4704 77.4097 20.6826 76.7011C18.8948 75.9926 16.8455 75.6399 14.5284 75.6399C12.2114 75.6399 10.1621 75.9926 8.37431 76.7011C6.58653 77.4097 5.15877 78.3667 4.09103 79.5721C3.02021 80.7775 2.21402 82.1179 1.6663 83.5902C1.11858 85.0625 0.844727 86.6238 0.844727 88.2801V96.7887ZM23.5135 89.8597V91.7277H5.54341V89.8597C5.54341 88.6635 5.6788 87.5654 5.95266 86.5624C6.22652 85.5594 6.67269 84.5963 7.29734 83.6761C7.9189 82.7559 8.8451 82.029 10.0729 81.4953C11.3006 80.9616 12.7868 80.6947 14.5284 80.6947C16.2701 80.6947 17.7563 80.9616 18.984 81.4953C20.2118 82.029 21.1349 82.7559 21.7596 83.6761C22.3811 84.5963 22.8304 85.5594 23.1042 86.5624C23.3781 87.5685 23.5135 88.6666 23.5135 89.8597Z" fill="white"/>
</svg>
